<svg width="1208" height="1352" viewBox="0 0 1208 1352" fill="none" xmlns="http://www.w3.org/2000/svg">
<g opacity="0.15" clip-path="url(#clip0_12_15)">
<path d="M492.244 130.648C492.244 130.648 492.365 131.101 492.653 131.267C494.83 132.141 496.842 133.303 498.854 134.464L492.244 130.648Z" fill="#EBEBEB"/>
<path d="M614.275 106.453C592.354 129.817 588.964 151.618 596.531 171.698C595.841 150.991 604.659 130.407 622.422 106.942C619.836 105.448 616.011 104.773 614.275 106.453Z" fill="#EBEBEB"/>
<path d="M924.184 680.072C914.736 666.57 903.551 654.748 891.415 643.909C911.031 601.97 877.178 531.843 856.69 501.621C852.314 495.263 841.725 488.383 831.257 481.956C845.448 428.837 849.588 377.197 829.528 324.996C823.22 308.709 818.115 299.63 810.732 293.835C855.058 248.918 832.24 141.094 804.481 98.2442C765.562 38.2208 705.765 26.3055 644.527 60.6916C642.216 62.0397 645.211 64.1523 648.417 65.2368C647.057 65.6012 645.697 65.9656 644.337 66.33C640.545 67.5891 649.952 71.8707 652.672 71.1419C733.453 48.0391 701.774 164.635 630.639 101.339C629.655 100.388 625.874 98.9719 623.486 99.1259C572.573 70.4971 522.881 90.857 497.595 130.672C497.307 130.506 497.02 130.34 497.02 130.34C495.793 128.482 492.588 127.398 490.034 127.839C461.59 118.698 439.397 129.26 423.338 149.111L423.217 148.658C422.443 146.679 419.978 145.639 417.469 145.339C418.464 143.615 417.448 140.729 413.789 139.766C366.928 125.356 333.016 170.155 310.361 210.722C309.454 210.965 308.835 211.374 308.216 211.783C308.139 210.589 307.609 209.516 305.597 208.355C264.365 186.849 231.018 197.485 205.261 222.85C126.51 187.347 31.0894 216.559 -21.6578 285.353C-60.8671 336.673 -55.2066 405.851 -35.4572 463.237C-32.4085 471.894 -28.4532 480.309 -23.8787 488.315C-37.0173 536.293 -50.0344 584.724 -63.173 632.702C-79.9534 694.289 -96.7337 755.875 -113.514 817.462C-116.359 827.699 -136.739 874.945 -128.958 884.035C-102.302 915.52 -68.1696 941.357 -35.3086 966.077C55.8466 1035.18 155.938 1094.12 256.96 1147.46C310.141 1175.49 365.466 1202.45 423.349 1219C436.792 1222.93 453.728 1228.11 468.267 1226.16C469.748 1226.25 470.655 1226.01 471.274 1225.6C588.294 1106.54 705.479 987.199 822.499 868.143C835.767 865.074 848.837 860.357 860.679 853.783C930.996 814.292 974.333 751.177 924.184 680.072ZM638.893 114.919C645.171 119.31 654.579 123.591 661.897 125.517C674.19 128.783 695.626 130.813 703.713 117.471C727.351 77.8546 689.314 60.1089 655.626 64.034C784.194 -4.66982 873.106 198.41 799.677 289.751C759.484 340.12 688.225 286.333 653.574 256.747C618.924 227.162 591.761 189.254 607.32 143.056C612.787 126.287 621.329 102.862 638.893 114.919ZM618.897 103.757C574.244 166.495 596.252 215.988 652.963 264.442C690.035 295.808 744.462 330.297 793.469 306.477C798.213 304.234 802.714 301.085 806.474 297.891C816.995 310.862 826.514 345.481 828.336 352.281C837.413 384.346 833.057 419.767 827.397 452.137C825.261 460.483 823.412 468.996 822.591 477.719C802.316 473.677 771.92 449.996 752.709 438.138C718.431 417.199 684.984 394.822 651.657 372.899C601.176 339.538 545.542 307.801 510.987 256.812C464.907 187.289 514.705 41.3023 618.897 103.757ZM488.771 134.008C489.832 136.153 490.893 138.298 491.953 140.443C478.246 168.167 476.157 202.981 491.524 236.762C515.863 289.517 565.604 322.833 612.515 353.749C656.839 383.171 701.285 413.047 746.727 441.199C765.076 452.559 786.121 468.542 807.566 477.857C817.127 484.527 826.854 490.91 836.913 496.717C884.334 524.095 917.829 674.487 831.585 667.229C685.265 655.176 579.051 519.896 496.421 412.794C461.101 367.111 412.081 329.229 399.253 270.474C388.996 225.85 427.318 115.005 488.771 134.008ZM301.25 213.892C304.124 215.552 307.01 214.536 308.006 212.811C308.127 213.264 308.248 213.718 308.37 214.171C303.182 223.821 298.613 233.062 294.873 240.867C251.328 332.218 270.242 410.963 314.349 498.506C378.365 625.901 478.195 743.699 603.666 815.757C574.857 842.426 491.745 825.097 459.023 815.401C309.187 770.279 198.609 625.965 158.633 479.496C142.798 421.304 148.456 361.726 166.285 304.96C183.029 251.4 237.966 180.804 301.25 213.892ZM-40.4746 388.299C-47.1918 269.845 92.95 171.802 202.905 224.939C162.295 267.402 141.031 346.71 138.23 393.375C133.218 474.402 165.307 561.521 216.018 635.633C191.032 635.769 161.196 625.057 138.115 613.264C44.853 564.401 -33.8106 500.208 -40.4746 388.299ZM-116.022 881.541C-81.7088 755.736 -47.6829 629.766 -13.3696 503.962C-3.059 517.962 9.39673 530.902 22.9695 542.57L-96.2187 908.302C-107.371 898.414 -117.572 887.543 -116.022 881.541ZM-69.9678 929.206L49.5522 562.899C63.3799 572.798 77.9927 582.001 91.9093 590.419C95.6454 592.576 100.078 595.519 105.251 598.505L-34.4877 957.354C-46.591 948.45 -58.3624 938.972 -69.9678 929.206ZM-8.64569 977.639L132.675 614.722C153.7 626.094 177.566 637.191 200.019 642.107L22.2924 999.716C11.8691 992.549 1.61174 985.094 -8.64569 977.639ZM48.7211 1017.66L229.478 654.134C245.724 675.775 263.373 696.312 282.184 714.836L86.9332 1042.4C74.3321 1034.36 61.4436 1026.15 48.7211 1017.66ZM155.941 1084.16C141.859 1076.03 127.942 1067.61 114.026 1059.19L306.29 736.801C322.692 750.869 339.758 763.788 357.079 774.937L155.941 1084.16ZM183.366 1100.38L384.669 790.867C404.832 801.741 428.078 813.246 452.94 822.619L224.917 1123.98C210.956 1116.3 197.161 1108.34 183.366 1100.38ZM252.673 1139.62L484.545 833.585C511.43 841.443 538.659 846.051 563.613 843.981L309.225 1168.44C289.836 1159.55 271.398 1149.67 252.673 1139.62ZM338.43 1182.24L618.898 824.551C635.899 833.6 653.232 842.075 670.941 849.234C673.694 850.44 676.612 851.358 679.364 852.564L371.052 1196.09C360.45 1191.89 349.44 1187.06 338.43 1182.24ZM780.236 893.558C728.92 945.935 677.317 998.146 626.001 1050.52C570.261 1107.24 514.688 1163.68 459.236 1220.56C442.43 1223.12 419.503 1213.72 403.353 1207.84L712.783 863.045C741.194 870.251 771.884 874.175 801.205 871.177C791.362 881.588 783.089 890.607 780.236 893.558ZM833.714 854.692C793.145 869.206 748.382 864.438 707.556 853.513C567.602 817.161 440.478 690.885 365.104 571.878C322.594 504.8 280.674 425.417 277.04 344.763C274.481 290.788 337.177 123.125 411.62 146.178C411.907 146.344 412.648 146.388 412.935 146.554C412.603 147.129 412.393 148.157 412.923 149.23C413.94 152.116 415.077 155.455 416.094 158.341C389.601 200.908 384.305 271.807 401.021 307.899C414.599 336.814 439.931 360.636 460.698 383.739C488.018 414.074 511.081 448.464 536.996 479.904C589.237 543.404 650.07 599.985 722.462 639.864C762.333 661.734 835.457 694.372 876.971 661.627C881.35 658.024 885.155 654.09 888.097 649.657C919.873 677.584 942.737 710.327 938.6 752.006C934.196 798.13 872.756 840.83 833.714 854.692Z" fill="#EBEBEB"/>
<path d="M673.625 200.114C684.511 214.446 698.294 225.086 712.421 232.476C727.001 239.744 741.771 241.374 752.177 233.97C755.273 231.926 756.556 230.368 758.956 227.538C761.356 224.708 763.181 221.547 764.885 217.932C768.414 211.156 770.959 203.429 773.217 195.536C775.022 187.764 776.418 179.373 776.166 171.181C776.368 162.867 774.922 154.752 770.347 146.746C778.395 151.392 783.499 160.47 786.67 169.581C789.386 178.814 790.29 188.532 789.712 198.161C789.134 207.791 787.074 217.331 783.246 226.617C781.332 231.26 779.13 235.737 775.901 240.003C773.124 244.148 768.369 249.067 763.747 251.763C754.292 258.183 741.975 260.269 731.362 258.74C720.627 256.757 711.22 252.476 703.549 246.514C688.042 234.878 676.383 218.567 673.625 200.114Z" fill="#EBEBEB"/>
<path d="M540.491 166.551C543.859 177.309 543.767 188.752 545.201 199.543C545.894 210.289 548.113 220.384 552.522 228.677C556.93 236.971 563.605 244.656 570.9 251.934C578.194 259.211 586.108 266.079 594.398 271.631L594.973 271.963L595.548 272.295C602.599 278.666 611.796 283.975 621.944 288.301C631.76 293.202 642.527 297.12 653.371 302.231C663.928 307.176 674.894 312.741 684.41 320.151C693.927 327.562 702.238 337.725 705.108 349.345C697.947 339.846 688.795 333.795 678.813 329.182C668.831 324.568 658.186 321.105 647.374 317.928C636.562 314.752 625.629 311.122 614.287 306.873C603.277 302.049 591.693 296.893 581.69 287.669L582.674 288.621C572.991 281.498 564.381 273.844 556.888 264.92C549.395 255.995 541.946 246.33 538.214 234.212C534.027 222.215 534.33 209.744 535.737 198.677C536.526 188.02 539.083 177.617 540.491 166.551Z" fill="#EBEBEB"/>
<path d="M528.121 402.356C546.814 410.466 564.843 419.725 581.998 431.162C598.987 442.887 614.649 456.911 627.955 473.023C640.807 489.257 652.389 504.374 666.403 518.597C679.677 532.774 694.355 545.847 709.862 557.483C725.657 569.284 741.695 581.993 757.867 592.479C773.751 602.799 791.614 612.346 807.954 612.583C823.554 612.776 838.318 597.159 836.71 579.37C835.721 561.172 824.317 543.092 809.351 529.853C827.215 539.4 842.577 555.933 847.213 577.77C849.388 588.605 846.985 601.396 839.862 611.079C833.479 620.806 821.305 627.955 809.198 629.013C797.092 630.07 785.948 627.468 775.922 623.596C765.895 619.723 756.367 614.988 747.336 609.391C729.109 598.484 713.645 586.107 697.11 574.261C680.618 561.675 665.41 547.529 651.772 531.992C638.134 516.454 625.779 499.358 615.315 482.969C604.065 467.278 591.123 452.525 576.158 439.286C560.286 426.291 544.038 414.611 528.121 402.356Z" fill="#EBEBEB"/>
<path d="M392.143 480.576C421.946 526.523 461.802 561.03 502.189 596.609C522.526 614.482 542.984 632.808 561.949 653.721C580.384 673.561 597.791 693.19 616.812 710.687C635.38 728.304 655.442 743.336 677.118 756.234L685.165 760.88L693.953 765.57C699.867 768.601 705.493 771.467 711.286 774.045C722.705 779.488 734.455 784.356 745.72 787.411C757.273 790.632 768.792 791.918 779.871 790.65C790.783 789.67 802.205 785.152 811.66 778.731C821.9 771.615 831.367 762.519 839.562 752.306C843.577 747.343 847.183 741.761 850.048 736.135C853.08 730.221 854.795 723.93 854.621 716.932C859.625 730.167 855.275 745.666 849.455 758.401C843.47 771.423 835.473 783.283 825.585 794.435C814.504 805.664 800.925 813.919 785.346 818.336C769.767 822.753 753.713 822.682 738.822 820.598C723.643 818.349 709.626 814.088 696.393 809.131C689.694 806.796 683.161 804.174 676.794 801.264L667.387 796.982L657.571 792.082C631.738 779.083 608.106 761.607 587.117 742.208C566.294 722.522 548.07 701.654 531.039 680.709C514.705 660.549 496.392 641.162 478.289 620.747C460.186 600.333 442.415 579.343 426.712 556.099C411.916 532.611 398.569 507.278 392.143 480.576Z" fill="#EBEBEB"/>
<path d="M217.503 487.043C222.459 510.981 230.8 533.04 241.617 553.463C252.887 573.765 265.849 593.128 280.835 610.977C295.655 629.113 312.046 645.857 328.889 662.479C345.899 678.814 364.147 694.331 382.804 710.468C359.667 702.091 338.234 690.1 318.294 675.522C298.354 660.944 280.194 643.945 264.391 624.858C248.753 605.483 235.017 584.141 226.313 560.722C217.774 537.016 213.526 511.188 217.503 487.043Z" fill="#EBEBEB"/>
<path d="M121.045 268.495C93.2555 288.088 75.3709 311.1 64.9261 336.492C59.56 349.105 56.0842 362.426 54.0898 375.836C52.0955 389.246 51.2508 403.32 52.4297 415.88C54.3668 443.055 61.7439 468.774 75.5445 493.985C89.1792 519.484 109.039 542.83 130.988 568.53C97.9218 562.085 66.2191 545.314 41.6394 518.861C16.8939 492.695 1.25058 456.073 -1.01521 419.511C-2.53474 400.24 -0.561042 382.22 4.37556 364.377C9.31217 346.535 17.6205 329.49 28.7584 314.844C39.8963 300.199 54.0296 287.666 70.2843 279.424C86.6605 271.635 104.008 267.472 121.045 268.495Z" fill="#EBEBEB"/>
</g>
<defs>
<clipPath id="clip0_12_15">
<rect width="1078.87" height="1200" fill="white" transform="translate(273 -227) rotate(30)"/>
</clipPath>
</defs>
</svg>
