<svg width="233" height="337" viewBox="0 0 233 337" fill="none" xmlns="http://www.w3.org/2000/svg">
<g opacity="0.1" clip-path="url(#clip0_12_74)">
<path d="M140.838 81.4697C140.838 81.4697 140.83 81.5671 140.777 81.6115C140.362 81.8697 139.991 82.1807 139.62 82.4918L140.838 81.4697Z" fill="#08D9D6"/>
<path d="M114.926 80.9202C120.269 84.921 121.753 89.2712 120.927 93.6647C120.319 89.3912 117.766 85.4872 113.272 81.3154C113.749 80.9154 114.509 80.6384 114.926 80.9202Z" fill="#08D9D6"/>
<path d="M72.0943 209.82C73.5444 206.708 75.4114 203.878 77.5092 201.215C71.9675 193.32 76.3761 177.708 79.4862 170.766C80.154 169.303 82.0777 167.509 83.9928 165.811C79.1597 155.426 76.4421 144.981 78.6694 133.546C79.3743 129.976 80.0932 127.928 81.3984 126.472C70.6792 118.86 71.46 95.9129 75.605 86.1172C81.4185 72.3943 93.2559 67.7864 107.064 72.626C107.587 72.8189 107.049 73.3607 106.43 73.6992C106.723 73.7248 107.015 73.7504 107.307 73.7759C108.131 73.8971 106.355 75.1158 105.771 75.0647C88.3615 73.2471 99.0791 96.0228 111.384 80.4632C111.551 80.2324 112.276 79.8051 112.771 79.7503C122.182 72.0347 133.113 74.4142 139.741 81.6682C139.794 81.6238 139.847 81.5793 139.847 81.5793C140.032 81.1538 140.65 80.8153 141.19 80.8135C146.695 77.909 151.631 79.2732 155.644 82.765L155.652 82.6676C155.739 82.2336 156.207 81.931 156.711 81.7788C156.445 81.461 156.549 80.8322 157.265 80.5022C166.358 75.8505 174.936 83.8149 181.052 91.3185C181.247 91.3355 181.388 91.397 181.53 91.4585C181.503 91.2107 181.573 90.9715 181.944 90.6604C189.625 84.7565 196.852 85.7323 203.054 90.0045C217.927 79.8715 238.561 82.4128 251.871 94.619C261.773 103.73 263.114 118.128 261.138 130.616C260.826 132.502 260.319 134.372 259.67 136.18C264.101 145.548 268.524 155.014 272.955 164.382C278.626 176.411 284.297 188.439 289.967 200.468C290.921 202.465 296.812 211.421 295.544 213.568C291.214 220.992 285.146 227.528 279.299 233.788C263.096 251.264 244.693 266.977 225.896 281.576C215.999 289.249 205.623 296.782 194.347 302.273C191.731 303.566 188.443 305.241 185.39 305.367C185.089 305.439 184.894 305.422 184.752 305.36C156.437 285.167 128.076 264.921 99.7607 244.728C96.9275 244.578 94.0754 244.083 91.4078 243.163C75.5524 237.604 64.3778 226.223 72.0943 209.82ZM110.182 83.5478C109.052 84.6759 107.277 85.8946 105.845 86.5546C103.441 87.6692 99.1168 88.8612 96.9751 86.4165C90.6919 79.1436 97.854 74.1267 104.908 73.7132C76.0443 64.2686 65.149 109.151 83.5187 125.235C93.5872 134.115 106.262 120.501 112.3 113.178C118.339 105.854 122.541 97.0939 117.677 88.1786C115.949 84.9357 113.349 80.4388 110.182 83.5478ZM113.88 80.5344C125.311 91.7909 122.587 102.741 112.704 114.734C106.233 122.511 96.3139 131.556 85.3974 128.442C84.343 128.153 83.3057 127.67 82.4187 127.15C80.7294 130.192 80.0288 137.639 79.901 139.1C79.1986 146.008 81.3738 153.117 83.706 159.554C84.4463 161.189 85.1336 162.868 85.6176 164.628C89.6312 163.066 95.0108 157.108 98.5233 153.98C104.798 148.444 110.851 142.643 116.896 136.939C126.046 128.268 136.312 119.744 141.557 108.033C148.496 92.1017 132.998 63.9514 113.88 80.5344ZM141.672 82.0334C141.532 82.5119 141.392 82.9904 141.252 83.4689C145.068 88.661 146.756 95.7282 144.825 103.215C141.74 114.919 132.74 123.554 124.234 131.594C116.204 139.234 108.166 146.972 99.8614 154.391C96.5077 157.386 92.7681 161.426 88.7053 164.113C86.9849 165.828 85.2201 167.489 83.3664 169.044C74.6277 176.377 73.1962 208.445 90.6282 203.835C120.212 196.069 137.11 164.471 150.189 139.508C155.782 128.858 164.469 119.312 164.976 106.794C165.466 97.2669 153.593 75.9116 141.672 82.0334ZM183.036 91.6393C182.506 92.0837 181.877 91.9796 181.611 91.6618C181.602 91.7592 181.594 91.8566 181.585 91.954C182.999 93.7462 184.27 95.4769 185.32 96.9428C197.559 114.11 196.527 130.95 190.645 150.507C182.119 178.96 165.899 206.74 142.763 226.063C149.639 230.493 166.064 223.93 172.426 220.757C201.536 206.079 219.002 172.47 221.905 140.973C223.049 128.461 219.733 116.442 214.021 105.441C208.648 95.0578 194.823 82.5612 183.036 91.6393ZM259.456 115.059C256.549 90.5135 224.25 75.4682 203.613 90.3479C213.481 97.5909 220.713 113.093 222.975 122.566C226.935 139.009 223.503 158.044 215.78 175.084C220.911 174.208 226.645 170.931 230.954 167.676C248.321 154.277 262.138 138.261 259.456 115.059ZM292.8 213.524C281.209 188.954 269.671 164.34 258.08 139.771C256.471 143.016 254.383 146.121 252.021 149.006L289.705 219.731C291.636 217.299 293.335 214.699 292.8 213.524ZM285.076 224.969L247.302 154.139C244.823 156.67 242.158 159.087 239.607 161.317C238.919 161.895 238.116 162.659 237.163 163.459L278.815 232.028C280.976 229.764 283.048 227.393 285.076 224.969ZM274.246 237.125L232.123 167.778C228.221 170.872 223.725 174.012 219.297 175.833L268.698 242.774C270.577 240.926 272.412 239.025 274.246 237.125ZM263.924 247.411L213.688 179.366C211.137 184.394 208.259 189.246 205.07 193.727L256.98 253.87C259.274 251.764 261.621 249.614 263.924 247.411ZM244.332 264.934C246.927 262.756 249.478 260.525 252.029 258.295L200.919 199.106C198.063 202.586 195.029 205.853 191.878 208.768L244.332 264.934ZM239.292 269.253L186.794 213.034C183.051 215.994 178.697 219.196 173.936 222.018L231.621 275.599C234.208 273.519 236.75 271.386 239.292 269.253ZM226.492 279.813L167.848 225.412C162.616 227.996 157.196 229.927 152.002 230.405L215.932 287.771C219.588 285.245 223.014 282.551 226.492 279.813ZM210.439 291.658L139.956 228.419C136.795 230.89 133.546 233.256 130.172 235.365C129.65 235.712 129.085 236.006 128.564 236.353L204.247 295.68C206.27 294.434 208.355 293.046 210.439 291.658ZM109.351 248.413C121.774 257.303 134.251 266.148 146.674 275.038C160.162 284.659 173.605 294.226 187.04 303.892C190.581 303.809 194.944 301.05 198.045 299.26L122.087 239.713C116.518 242.219 110.364 244.134 104.239 244.58C106.636 246.36 108.659 247.911 109.351 248.413ZM96.9732 242.374C105.822 243.884 114.833 241.286 122.814 237.568C150.213 225.047 171.727 194.54 182.886 167.397C189.181 152.096 194.91 134.293 192.737 117.614C191.31 106.447 172.381 74.3164 157.942 81.7392C157.889 81.7837 157.738 81.8196 157.685 81.864C157.774 81.9699 157.855 82.1733 157.785 82.4125C157.681 83.0414 157.568 83.7676 157.464 84.3965C164.439 92.1716 168.091 106.526 165.967 114.536C164.227 120.96 159.892 126.764 156.467 132.255C151.959 139.467 148.471 147.357 144.292 154.745C135.871 169.663 125.437 183.472 112.027 194.273C104.638 200.203 90.8157 209.544 81.1138 204.328C80.0849 203.747 79.1621 203.078 78.398 202.275C72.8888 209.154 69.3824 216.699 71.739 225.1C74.3111 234.404 88.4614 240.942 96.9732 242.374Z" fill="#08D9D6"/>
<path d="M106.138 102.284C104.423 105.618 101.98 108.3 99.3489 110.327C96.6205 112.346 93.6491 113.214 91.2463 112.072C90.5371 111.764 90.2175 111.491 89.6227 110.997C89.0279 110.504 88.5391 109.921 88.0588 109.241C87.0896 107.978 86.2878 106.485 85.539 104.947C84.8876 103.418 84.2977 101.747 84.053 100.057C83.7108 98.3587 83.7138 96.6414 84.3628 94.8334C82.8798 96.0777 82.1609 98.125 81.8401 100.109C81.6167 102.101 81.7829 104.128 82.2499 106.083C82.7168 108.038 83.4845 109.92 84.6059 111.687C85.1665 112.57 85.7802 113.409 86.5972 114.168C87.3167 114.918 88.4704 115.755 89.5162 116.141C91.6883 117.116 94.2908 117.098 96.4129 116.401C98.5436 115.606 100.319 114.387 101.677 112.886C104.438 109.938 106.239 106.17 106.138 102.284Z" fill="#08D9D6"/>
<path d="M132.239 90.5812C131.937 92.9104 132.37 95.2547 132.466 97.5205C132.712 99.7504 132.622 101.902 132.018 103.763C131.413 105.624 130.322 107.442 129.088 109.199C127.855 110.956 126.48 112.651 124.98 114.091L124.874 114.18L124.768 114.268C123.552 115.831 121.857 117.253 119.931 118.507C118.095 119.868 116.027 121.061 113.988 122.502C112.001 123.899 109.952 125.437 108.268 127.302C106.583 129.166 105.246 131.552 105.077 134.04C106.203 131.832 107.862 130.26 109.743 128.952C111.624 127.644 113.683 126.549 115.786 125.506C117.889 124.463 120.001 123.323 122.174 122.041C124.259 120.653 126.449 119.176 128.167 116.921L128 117.152C129.729 115.34 131.219 113.459 132.433 111.357C133.647 109.254 134.826 107.002 135.154 104.381C135.578 101.768 135.065 99.2202 134.376 97.0006C133.829 94.8426 132.928 92.8008 132.239 90.5812Z" fill="#08D9D6"/>
<path d="M143.307 138.514C139.765 140.854 136.401 143.406 133.295 146.373C130.234 149.393 127.528 152.837 125.381 156.624C123.331 160.42 121.502 163.94 119.141 167.365C116.931 170.754 114.392 173.967 111.631 176.915C108.818 179.908 105.987 183.096 103.049 185.832C100.163 188.524 96.8435 191.129 93.4995 191.769C90.306 192.373 86.7118 189.703 86.3982 185.995C85.9428 182.225 87.6285 178.103 90.2199 174.846C86.9004 177.451 84.3466 181.399 84.1854 186.047C84.1312 188.348 85.087 190.886 86.8987 192.615C88.56 194.379 91.3165 195.406 93.8387 195.185C96.3608 194.964 98.5529 194.027 100.47 192.87C102.387 191.712 104.171 190.396 105.821 188.921C109.166 186.024 111.891 182.925 114.855 179.897C117.783 176.718 120.392 173.265 122.628 169.584C124.864 165.903 126.78 161.948 128.334 158.207C130.074 154.581 132.196 151.086 134.787 147.828C137.574 144.588 140.485 141.604 143.307 138.514Z" fill="#08D9D6"/>
<path d="M174.035 149.643C169.583 160.147 162.654 168.669 155.655 177.43C152.129 181.833 148.595 186.333 145.46 191.309C142.396 196.047 139.535 200.704 136.265 204.982C133.093 209.268 129.52 213.078 125.54 216.508L124.057 217.753L122.424 219.033C121.32 219.869 120.269 220.66 119.174 221.399C117.028 222.928 114.793 224.352 112.593 225.387C110.339 226.465 108.022 227.146 105.703 227.287C103.429 227.48 100.922 226.966 98.7499 225.991C96.3915 224.902 94.1202 223.378 92.0693 221.579C91.066 220.706 90.1242 219.691 89.3328 218.641C88.497 217.537 87.9174 216.308 87.7001 214.866C87.1522 217.763 88.6054 220.785 90.26 223.187C91.9591 225.643 94.029 227.787 96.461 229.717C99.1408 231.62 102.225 232.822 105.582 233.165C108.938 233.508 112.229 232.912 115.209 231.946C118.241 230.935 120.963 229.554 123.499 228.058C124.789 227.337 126.034 226.563 127.235 225.735L129.01 224.517L130.847 223.156C135.677 219.554 139.893 215.114 143.498 210.375C147.058 205.582 150.042 200.642 152.778 195.728C155.4 191.001 158.456 186.361 161.432 181.518C164.407 176.674 167.294 171.725 169.675 166.388C171.861 161.034 173.683 155.353 174.035 149.643Z" fill="#08D9D6"/>
<path d="M210.1 144.651C209.949 149.742 209.036 154.57 207.555 159.151C205.977 163.724 204.018 168.166 201.589 172.37C199.205 176.627 196.448 180.655 193.593 184.675C190.695 188.642 187.512 192.486 184.268 196.471C188.712 193.916 192.676 190.68 196.239 186.968C199.803 183.255 202.914 179.111 205.466 174.623C207.973 170.082 210.019 165.206 210.958 160.087C211.852 154.914 211.789 149.461 210.1 144.651Z" fill="#08D9D6"/>
<path d="M221.984 96.3227C228.394 99.3373 232.896 103.412 235.957 108.243C237.515 110.637 238.71 113.244 239.604 115.924C240.498 118.603 241.181 121.46 241.393 124.079C241.979 129.725 241.396 135.268 239.476 140.94C237.601 146.665 234.371 152.173 230.798 158.24C237.349 155.722 243.246 151.134 247.332 144.817C251.463 138.554 253.348 130.474 252.49 122.891C252.104 118.882 251.047 115.256 249.389 111.774C247.731 108.292 245.41 105.095 242.595 102.494C239.78 99.8917 236.427 97.8317 232.793 96.7286C229.152 95.723 225.442 95.4966 221.984 96.3227Z" fill="#08D9D6"/>
</g>
<defs>
<clipPath id="clip0_12_74">
<rect width="224.765" height="250" fill="white" transform="matrix(-0.766044 0.642788 0.642788 0.766044 172.882 0.160156)"/>
</clipPath>
</defs>
</svg>
