<svg width="128" height="237" viewBox="0 0 128 237" fill="none" xmlns="http://www.w3.org/2000/svg">
<g opacity="0.1" clip-path="url(#clip0_12_123)">
<path d="M19.8866 53.6472C19.8866 53.6472 19.9048 53.7152 19.9479 53.7401C20.2746 53.8712 20.5763 54.0454 20.8781 54.2197L19.8866 53.6472Z" fill="#FF2E63"/>
<path d="M38.1912 50.0179C34.9031 53.5227 34.3946 56.7928 35.5297 59.8048C35.4262 56.6986 36.7489 53.6112 39.4134 50.0913C39.0254 49.8673 38.4516 49.7659 38.1912 50.0179Z" fill="#FF2E63"/>
<path d="M84.6776 136.061C83.2604 134.036 81.5827 132.262 79.7623 130.636C82.7046 124.346 77.6267 113.827 74.5536 109.293C73.8971 108.339 72.3087 107.307 70.7386 106.343C72.8672 98.3756 73.4882 90.6295 70.4791 82.7994C69.533 80.3563 68.7672 78.9945 67.6597 78.1252C74.3086 71.3877 70.886 55.2142 66.7222 48.7867C60.8843 39.7832 51.9147 37.9959 42.729 43.1538C42.3824 43.356 42.8317 43.6729 43.3126 43.8356C43.1086 43.8902 42.9046 43.9449 42.7006 43.9995C42.1317 44.1884 43.5427 44.8306 43.9507 44.7213C56.0679 41.2559 51.3161 58.7452 40.6458 49.2509C40.4983 49.1083 39.9312 48.8958 39.573 48.9189C31.9359 44.6246 24.4822 47.6786 20.6892 53.6508C20.6461 53.6259 20.603 53.6011 20.603 53.6011C20.419 53.3224 19.9381 53.1597 19.555 53.2259C15.2885 51.8547 11.9596 53.4391 9.55071 56.4167L9.53249 56.3487C9.4165 56.0519 9.04673 55.8958 8.6703 55.851C8.81963 55.5923 8.6672 55.1594 8.11833 55.015C1.08918 52.8535 -3.99754 59.5732 -7.39583 65.6584C-7.53183 65.6948 -7.62472 65.7562 -7.71761 65.8175C-7.72916 65.6384 -7.80871 65.4775 -8.11048 65.3033C-14.2952 62.0774 -19.2973 63.6728 -23.1609 67.4775C-34.9734 62.152 -49.2866 66.5338 -57.1987 76.853C-63.0801 84.5509 -62.231 94.9276 -59.2686 103.536C-58.8113 104.834 -58.218 106.096 -57.5318 107.297C-59.5026 114.494 -61.4552 121.759 -63.4259 128.955C-65.943 138.193 -68.46 147.431 -70.9771 156.669C-71.4038 158.205 -74.4608 165.292 -73.2937 166.655C-69.2952 171.378 -64.1754 175.254 -59.2463 178.962C-45.573 189.327 -30.5593 198.168 -15.406 206.17C-7.42892 210.373 0.869951 214.417 9.55238 216.901C11.5688 217.49 14.1092 218.267 16.29 217.974C16.5122 217.987 16.6482 217.951 16.7411 217.89C34.2941 200.031 51.8719 182.13 69.4248 164.272C71.415 163.811 73.3755 163.104 75.1519 162.117C85.6994 156.194 92.1999 146.727 84.6776 136.061ZM41.884 51.2878C42.8257 51.9465 44.2368 52.5887 45.3345 52.8776C47.1785 53.3675 50.394 53.672 51.6069 51.6707C55.1527 45.7282 49.4471 43.0664 44.3939 43.6551C63.6791 33.3496 77.0159 63.8115 66.0016 77.5127C59.9726 85.068 49.2837 76.9999 44.0861 72.5621C38.8885 68.1243 34.8141 62.4381 37.148 55.5085C37.968 52.993 39.2494 49.4793 41.884 51.2878ZM38.8845 49.6136C32.1866 59.0243 35.4877 66.4483 43.9945 73.7163C49.5552 78.4212 57.7194 83.5946 65.0704 80.0216C65.782 79.6851 66.4571 79.2127 67.0211 78.7336C68.5992 80.6794 70.0271 85.8722 70.3004 86.8922C71.662 91.7019 71.0086 97.0151 70.1596 101.871C69.8391 103.123 69.5618 104.399 69.4386 105.708C66.3974 105.102 61.838 101.549 58.9563 99.7708C53.8147 96.6298 48.7975 93.2734 43.7986 89.9849C36.2264 84.9808 27.8814 80.2202 22.6981 72.5718C15.786 62.1434 23.2557 40.2454 38.8845 49.6136ZM19.3657 54.1512C19.5248 54.473 19.6839 54.7948 19.843 55.1166C17.7869 59.2751 17.4735 64.4972 19.7787 69.5643C23.4295 77.4775 30.8906 82.4749 37.9272 87.1123C44.5759 91.5257 51.2428 96.0071 58.059 100.23C60.8113 101.934 63.9681 104.331 67.1849 105.729C68.6191 106.729 70.0781 107.686 71.587 108.558C78.7001 112.664 83.7243 135.223 70.7877 134.134C48.8398 132.326 32.9076 112.034 20.5131 95.9691C15.2152 89.1167 7.86213 83.4344 5.93792 74.6212C4.39944 67.9275 10.1477 51.3009 19.3657 54.1512ZM-8.76248 66.1339C-8.33139 66.3828 -7.8985 66.2304 -7.74917 65.9717C-7.73095 66.0397 -7.71273 66.1077 -7.69451 66.1757C-8.47275 67.6232 -9.1581 69.0094 -9.719 70.18C-16.2507 83.8827 -13.4137 95.6945 -6.79772 108.826C2.80476 127.935 17.7792 145.605 36.5999 156.414C32.2785 160.414 19.8118 157.815 14.9034 156.36C-7.57197 149.592 -24.1587 127.945 -30.155 105.974C-32.5303 97.2456 -31.6816 88.3089 -29.0073 79.794C-26.4956 71.76 -18.2551 61.1707 -8.76248 66.1339ZM-60.0212 92.2949C-61.0288 74.5267 -40.0075 59.8204 -23.5142 67.7909C-29.6058 74.1604 -32.7953 86.0565 -33.2155 93.0563C-33.9673 105.21 -29.1539 118.278 -21.5472 129.395C-25.2952 129.415 -29.7706 127.809 -33.2327 126.04C-47.222 118.71 -59.0216 109.081 -60.0212 92.2949ZM-71.3533 166.281C-66.2063 147.41 -61.1024 128.515 -55.9554 109.644C-54.4088 111.744 -52.5405 113.685 -50.5046 115.436L-68.3828 170.295C-70.0556 168.812 -71.5858 167.182 -71.3533 166.281ZM-64.4452 173.431L-46.5172 118.485C-44.443 119.97 -42.2511 121.35 -40.1636 122.613C-39.6032 122.936 -38.9383 123.378 -38.1623 123.826L-59.1231 177.653C-60.9386 176.318 -62.7043 174.896 -64.4452 173.431ZM-55.2468 180.696L-34.0487 126.258C-30.895 127.964 -27.3151 129.629 -23.9472 130.366L-50.6061 184.007C-52.1696 182.932 -53.7082 181.814 -55.2468 180.696ZM-46.6418 186.699L-19.5282 132.17C-17.0915 135.416 -14.444 138.497 -11.6224 141.275L-40.91 190.41C-42.8002 189.204 -44.7334 187.973 -46.6418 186.699ZM-30.5588 196.674C-32.6712 195.454 -34.7587 194.192 -36.8462 192.929L-8.00652 144.57C-5.54617 146.68 -2.98626 148.618 -0.38813 150.291L-30.5588 196.674ZM-26.4452 199.106L3.75041 152.68C6.77475 154.311 10.2618 156.037 13.991 157.443L-20.2125 202.647C-22.3066 201.496 -24.3759 200.301 -26.4452 199.106ZM-16.0491 204.994L18.7317 159.088C22.7645 160.267 26.8489 160.958 30.5919 160.647L-7.56623 209.316C-10.4746 207.982 -13.2403 206.5 -16.0491 204.994ZM-3.18546 211.386L38.8847 157.733C41.4348 159.09 44.0348 160.361 46.6911 161.435C47.104 161.616 47.5418 161.754 47.9547 161.935L1.70772 213.464C0.117548 212.833 -1.53396 212.109 -3.18546 211.386ZM63.0853 168.084C55.388 175.94 47.6475 183.772 39.9501 191.629C31.5892 200.137 23.2532 208.602 14.9354 217.135C12.4145 217.518 8.97552 216.108 6.55293 215.226L52.9674 163.507C57.2291 164.588 61.8325 165.176 66.2307 164.727C64.7542 166.288 63.5133 167.641 63.0853 168.084ZM71.1071 162.254C65.0218 164.431 58.3073 163.716 52.1835 162.077C31.1902 156.624 12.1217 137.683 0.815654 119.832C-5.56088 109.77 -11.8489 97.8625 -12.394 85.7645C-12.7778 77.6682 -3.37339 52.5187 7.79298 55.9767C7.83609 56.0016 7.9472 56.0083 7.99031 56.0332C7.94053 56.1194 7.90897 56.2736 7.98852 56.4345C8.14095 56.8674 8.3116 57.3682 8.46403 57.8011C4.49019 64.1862 3.69574 74.8211 6.20312 80.2349C8.23987 84.5721 12.0397 88.1455 15.1547 91.6108C19.2527 96.1611 22.7121 101.32 26.5995 106.036C34.4355 115.561 43.5605 124.048 54.4193 130.03C60.3999 133.31 71.3685 138.206 77.5956 133.294C78.2525 132.754 78.8232 132.164 79.2645 131.499C84.031 135.688 87.4606 140.599 86.84 146.851C86.1794 153.769 76.9634 160.174 71.1071 162.254Z" fill="#FF2E63"/>
<path d="M47.0938 64.0672C48.7266 66.217 50.7941 67.813 52.9131 68.9215C55.1001 70.0117 57.3156 70.2562 58.8765 69.1456C59.341 68.8389 59.5334 68.6052 59.8934 68.1807C60.2534 67.7563 60.5272 67.2821 60.7828 66.7399C61.3121 65.7235 61.6939 64.5644 62.0326 63.3804C62.3033 62.2147 62.5126 60.9561 62.4749 59.7272C62.5051 58.4801 62.2883 57.2628 61.6021 56.0619C62.8092 56.7588 63.5749 58.1206 64.0504 59.4872C64.4579 60.8721 64.5935 62.3299 64.5068 63.7743C64.4201 65.2187 64.1111 66.6498 63.5369 68.0426C63.2498 68.739 62.9195 69.4106 62.4351 70.0505C62.0186 70.6723 61.3053 71.41 60.612 71.8145C59.1938 72.7775 57.3462 73.0904 55.7543 72.861C54.1441 72.5636 52.733 71.9214 51.5824 71.0272C49.2563 69.2818 47.5075 66.8352 47.0938 64.0672Z" fill="#FF2E63"/>
<path d="M27.1236 59.0326C27.6289 60.6464 27.6151 62.3628 27.8301 63.9814C27.9341 65.5934 28.2669 67.1076 28.9282 68.3516C29.5895 69.5956 30.5908 70.7485 31.685 71.84C32.7792 72.9316 33.9662 73.9618 35.2097 74.7947L35.296 74.8445L35.3822 74.8943C36.4399 75.8498 37.8194 76.6463 39.3416 77.2952C40.814 78.0304 42.4291 78.6179 44.0557 79.3846C45.6392 80.1264 47.284 80.9611 48.7115 82.0727C50.139 83.1842 51.3856 84.7087 51.8163 86.4518C50.7421 85.0269 49.3692 84.1193 47.872 83.4273C46.3747 82.7353 44.7778 82.2157 43.1561 81.7392C41.5344 81.2628 39.8944 80.7183 38.1931 80.0809C36.5416 79.3573 34.8039 78.584 33.3035 77.2004L33.451 77.3431C31.9987 76.2746 30.7071 75.1266 29.5832 73.788C28.4593 72.4493 27.342 70.9995 26.782 69.1818C26.1541 67.3822 26.1995 65.5116 26.4106 63.8516C26.5289 62.253 26.9125 60.6926 27.1236 59.0326Z" fill="#FF2E63"/>
<path d="M25.2682 94.4034C28.0721 95.6199 30.7765 97.0088 33.3497 98.7244C35.8981 100.483 38.2473 102.587 40.2432 105.004C42.1711 107.439 43.9084 109.706 46.0105 111.84C48.0015 113.966 50.2032 115.927 52.5294 117.672C54.8986 119.443 57.3043 121.349 59.73 122.922C62.1126 124.47 64.7921 125.902 67.2431 125.938C69.5831 125.967 71.7977 123.624 71.5565 120.956C71.4081 118.226 69.6975 115.514 67.4527 113.528C70.1322 114.96 72.4365 117.44 73.132 120.716C73.4582 122.341 73.0977 124.26 72.0293 125.712C71.0719 127.171 69.2457 128.243 67.4297 128.402C65.6138 128.561 63.9422 128.17 62.4383 127.589C60.9343 127.009 59.505 126.298 58.1504 125.459C55.4163 123.823 53.0968 121.966 50.6165 120.189C48.1428 118.301 45.8615 116.179 43.8158 113.849C41.7702 111.518 39.9169 108.954 38.3472 106.495C36.6598 104.142 34.7185 101.929 32.4737 99.943C30.0929 97.9937 27.6557 96.2417 25.2682 94.4034Z" fill="#FF2E63"/>
<path d="M4.87146 106.136C9.34188 113.028 15.3203 118.204 21.3783 123.541C24.4288 126.222 27.4976 128.971 30.3424 132.108C33.1076 135.084 35.7186 138.029 38.5718 140.653C41.357 143.296 44.3662 145.55 47.6177 147.485L48.8248 148.182L50.1429 148.886C51.03 149.34 51.874 149.77 52.7429 150.157C54.4557 150.973 56.2183 151.703 57.9081 152.162C59.6409 152.645 61.3689 152.838 63.0306 152.648C64.6675 152.501 66.3808 151.823 67.799 150.86C69.335 149.792 70.755 148.428 71.9843 146.896C72.5866 146.151 73.1275 145.314 73.5573 144.47C74.0119 143.583 74.2693 142.64 74.2431 141.59C74.9937 143.575 74.3412 145.9 73.4683 147.81C72.5705 149.763 71.3709 151.542 69.8878 153.215C68.2256 154.9 66.1887 156.138 63.8518 156.8C61.515 157.463 59.107 157.452 56.8733 157.14C54.5964 156.802 52.4938 156.163 50.509 155.42C49.5041 155.069 48.5242 154.676 47.5691 154.24L46.158 153.597L44.6856 152.862C40.8106 150.912 37.2659 148.291 34.1175 145.381C30.9941 142.428 28.2605 139.298 25.7059 136.156C23.2558 133.132 20.5088 130.224 17.7934 127.162C15.078 124.1 12.4123 120.951 10.0569 117.465C7.83745 113.942 5.83535 110.142 4.87146 106.136Z" fill="#FF2E63"/>
<path d="M-21.3245 107.107C-20.5811 110.697 -19.3301 114.006 -17.7075 117.07C-16.0169 120.115 -14.0726 123.019 -11.8247 125.697C-9.60169 128.417 -7.14313 130.929 -4.61657 133.422C-2.06512 135.872 0.672095 138.2 3.47065 140.62C8.18977e-05 139.364 -3.21492 137.565 -6.20592 135.378C-9.19692 133.192 -11.9208 130.642 -14.2914 127.779C-16.637 124.873 -18.6974 121.671 -20.003 118.158C-21.2838 114.602 -21.921 110.728 -21.3245 107.107Z" fill="#FF2E63"/>
</g>
<defs>
<clipPath id="clip0_12_123">
<rect width="161.831" height="180" fill="white" transform="translate(-13) rotate(30)"/>
</clipPath>
</defs>
</svg>
