<svg width="527" height="510" viewBox="0 0 527 510" fill="none" xmlns="http://www.w3.org/2000/svg">
<circle cx="212" cy="226" r="190" fill="#FF2E63" fill-opacity="0.05"/>
<ellipse cx="258.976" cy="273.13" rx="142.976" ry="143.13" fill="#08D9D6" fill-opacity="0.2"/>
<circle cx="50" cy="128" r="50" fill="white"/>
<circle cx="50" cy="128" r="49.75" stroke="#FF2E63" stroke-opacity="0.2" stroke-width="0.5"/>
<circle cx="50" cy="128" r="43.75" fill="white"/>
<circle cx="50" cy="128" r="43.5" stroke="#FF2E63" stroke-opacity="0.2" stroke-width="0.5"/>
<path d="M71.9194 117.974C70.6861 119.172 69.5584 121.145 69.2412 122.978C68.325 118.22 64.6601 114.097 59.9733 112.793C60.7838 112.229 61.1009 111.208 61.0657 110.221C61.4181 110.327 61.7705 110.362 62.1229 110.327C62.3695 110.291 62.9334 110.221 63.1801 110.009C63.1801 112.758 66.563 113.146 68.6422 112.688C68.4307 114.872 69.7698 117.41 71.9194 117.974Z" fill="#66C7C2"/>
<path d="M70.1574 133.373C71.708 135.1 68.9593 136.65 67.7964 137.073C66.8449 137.426 65.823 137.531 64.8363 137.567C62.8981 137.637 60.9599 137.249 59.0218 137.144C54.8635 136.932 50.7757 137.919 46.6175 137.743C39.2877 137.39 27.6234 134.078 29.8788 124.493C30.0197 125.057 30.1959 125.62 30.4426 126.149C32.8741 131.188 39.2877 131.294 44.045 130.906C47.4632 130.624 50.9519 130.272 54.2292 131.47C57.1188 132.527 59.6561 134.43 62.6867 135.17C64.8715 135.734 67.3383 135.699 69.206 134.289C69.5936 134.043 69.9108 133.726 70.1574 133.373Z" fill="#FAD399"/>
<path d="M70.1222 129.497C71.567 132.809 67.9726 134.924 65.1887 134.888C62.7219 134.853 60.4666 133.761 58.2818 132.668C56.5903 131.823 54.8635 130.906 52.9958 130.484C51.0224 130.025 48.9433 130.025 46.9347 130.131C42.6707 130.413 38.0543 131.294 34.1075 129.109C32.1693 128.017 30.7598 126.255 30.3721 124.035C30.0197 121.991 30.8302 117.093 33.8608 117.656C33.7904 118.22 33.7904 118.784 33.8961 119.383C34.8475 125.233 41.5078 124.88 45.9832 125.444C49.4719 125.902 52.3263 127.911 55.4979 129.285C58.0703 130.413 60.8542 131.188 63.6734 131.224C65.6821 131.259 68.6422 131.047 70.087 129.426C70.087 129.462 70.087 129.462 70.1222 129.497Z" fill="#FDE9CC"/>
<path d="M69.7346 126.537C71.2851 127.841 69.1707 129.603 67.9726 130.025C66.9154 130.413 65.7525 130.589 64.5896 130.66C62.3695 130.765 60.1142 130.343 57.9998 129.638C54.1235 128.369 50.7405 125.62 46.688 124.986C42.9878 124.387 38.0896 125.127 35.4818 121.779C32.3808 117.797 35.8695 112.652 40.4858 112.829C39.041 114.168 38.6886 116.634 39.4991 118.573C41.0144 122.273 45.5251 123.295 49.0843 123.541C51.8682 123.718 54.5816 123.718 57.2951 124.352C59.7971 124.951 62.0171 126.22 64.4134 127.065C65.8935 127.559 67.7964 128.017 69.206 127.03C69.4174 126.889 69.5936 126.713 69.7346 126.537Z" fill="#FAD399"/>
<path d="M69.3821 136.897C69.5231 136.791 69.6641 136.686 69.805 136.58C68.5716 139.575 67.6554 142.712 66.7744 145.848C65.823 149.231 64.801 152.72 64.2372 156.208C63.6029 156.525 62.9333 156.843 62.299 157.089C64.1315 150.958 65.7172 144.791 67.3383 138.589C68.1135 138.13 68.8183 137.567 69.3821 136.897Z" fill="#99D9D7"/>
<path d="M69.5231 124.14C70.3689 125.797 68.6069 126.96 67.1268 126.995C66.2811 126.995 65.4354 126.748 64.6248 126.466C63.1448 125.973 61.8057 125.198 60.3609 124.634C57.4008 123.541 54.4054 123.189 51.2691 123.083C47.9566 122.977 44.2212 122.872 41.543 120.546C38.9001 118.22 38.5829 112.899 42.8469 112.229C42.7059 112.652 42.6354 113.11 42.565 113.569C42.2478 116.493 44.1507 118.96 46.7232 120.194C50.5291 122.026 54.6521 120.581 58.4932 121.85C60.819 122.625 64.3782 125.233 66.563 122.801C66.563 122.801 66.563 122.766 66.5983 122.766C67.5497 123.083 68.3955 123.647 69.065 124.669C69.065 124.739 69.1003 124.81 69.1003 124.88C69.1355 125.092 69.4526 125.021 69.4526 124.845C69.4879 124.81 69.4879 124.775 69.4879 124.704C69.4879 124.669 69.4526 124.634 69.4526 124.634C69.4526 124.563 69.4526 124.528 69.4526 124.458C69.4526 124.281 69.4879 124.211 69.5231 124.14Z" fill="#FDE9CC"/>
<path d="M59.7266 113.005C64.6248 114.908 67.7964 118.573 68.8888 123.612C67.6202 122.061 65.2944 121.533 63.321 121.674C63.4267 121.497 63.5324 121.251 63.5324 121.216C63.6029 120.934 63.6381 120.652 63.6029 120.37C63.5677 119.876 63.3562 119.383 63.0391 119.031C62.5105 118.432 61.3476 118.009 60.5371 118.396C60.5723 118.185 60.5371 117.938 60.4314 117.762C60.3609 117.586 60.1494 117.304 59.938 117.198C60.6075 116.035 60.819 114.591 60.079 113.498C59.9732 113.287 59.8323 113.146 59.7266 113.005C59.6913 113.005 59.6913 113.005 59.7266 113.005Z" fill="#66C7C2"/>
<path d="M64.3077 138.095C65.4354 138.095 66.5983 137.989 67.7259 137.637C65.1534 139.399 61.7705 140.139 58.8103 140.773C57.7179 141.02 56.6255 141.196 55.5331 141.372C55.4978 141.372 55.4626 141.372 55.4274 141.372C52.573 141.795 49.6833 141.972 46.7937 141.866C42.9526 141.725 39.041 141.055 35.4113 139.681C33.2265 138.87 31.2883 137.602 30.4778 135.311C29.914 133.726 29.9845 132.069 30.0197 130.448C30.7597 131.928 31.8522 133.232 33.1208 134.219C36.9971 137.214 42.4945 138.095 47.287 138.236C50.1767 138.307 52.9958 137.884 55.8855 137.672C58.7046 137.531 61.4533 138.095 64.3077 138.095Z" fill="#FDE9CC"/>
<path d="M66.1049 122.519C63.8144 124.493 59.9733 121.392 57.577 120.898C54.7226 120.335 51.7625 121.004 48.9081 120.299C45.9832 119.559 43.0936 117.339 43.1288 114.062C43.1993 110.644 45.9832 108.353 48.2385 106.204C48.309 106.486 48.3795 106.767 48.5557 106.979C48.6262 107.049 48.6966 107.049 48.7671 107.014C49.2605 106.873 49.6833 106.908 50.1062 107.085C47.6394 107.648 45.7365 110.714 46.0889 113.181C46.5823 116.599 50.2119 116.599 52.8901 117.128C52.9958 117.339 53.1016 117.551 53.2073 117.727C54.4054 119.418 56.8722 119.841 58.5989 118.749C59.0218 118.467 59.4447 118.079 59.7618 117.586C59.7971 117.621 59.8323 117.621 59.8675 117.656C59.9733 117.727 60.079 117.833 60.1495 117.938C60.2904 118.15 60.3256 118.361 60.2904 118.643V118.678C60.2904 118.714 60.2904 118.714 60.2904 118.749C60.3256 118.819 60.3961 118.855 60.4666 118.855C60.9247 118.819 61.3124 118.678 61.8057 118.784C62.2991 118.925 62.7219 119.207 63.0038 119.665C63.2505 120.088 63.3562 120.652 63.2505 121.145C63.2153 121.321 63.0743 121.533 63.0743 121.709H63.0391C62.7924 121.744 62.7924 122.097 63.0391 122.097C64.061 122.202 65.1182 122.273 66.1049 122.519Z" fill="#FAD399"/>
<path d="M63.2505 101.622C63.2505 101.728 63.2505 101.799 63.2152 101.904C63.1095 102.257 62.3343 102.926 62.0876 103.279C60.8894 105.217 60.6428 107.543 61.2418 109.728C61.1714 109.692 61.0656 109.692 60.9952 109.657C60.8542 109.023 60.6075 108.424 60.1846 108.001C59.8675 107.648 59.4799 107.402 59.0922 107.226C59.1979 107.296 59.3741 107.261 59.4094 107.12C59.5503 106.063 59.9027 105.005 60.4666 104.089C60.9599 103.279 62.1933 101.622 63.2505 101.622Z" fill="#FDE9CC"/>
<path d="M62.6866 140.456C64.061 140.069 65.4706 139.611 66.7039 138.941C65.0829 145.002 63.4267 151.063 62.0171 157.16C60.7837 157.653 59.4799 158.041 58.176 158.323C59.7618 152.438 61.3123 146.482 62.6514 140.527C62.7219 140.527 62.7219 140.492 62.6866 140.456Z" fill="#66C7C2"/>
<path d="M62.8981 101.129C60.3961 100.953 57.7179 101.904 55.7797 103.42C55.674 103.243 55.6035 103.067 55.5683 102.891C55.6035 102.891 55.6035 102.891 55.6387 102.856C56.3083 101.411 59.4094 100.741 60.7837 100.741C61.2066 100.706 62.299 100.777 62.8981 101.129Z" fill="#FDE9CC"/>
<path d="M62.4752 101.446C61.7 101.728 60.9247 102.644 60.5723 103.102C59.6561 104.23 59.1275 105.604 59.0218 107.049C59.0218 107.12 59.057 107.19 59.1275 107.225C58.176 106.803 57.0836 106.838 56.1674 107.296C56.1321 106.38 56.3436 105.64 56.7312 104.864C56.8722 104.829 56.9427 104.618 56.8017 104.512L56.7665 104.477C56.4493 104.265 56.2026 104.019 56.0264 103.772C58.1056 102.468 60.079 101.799 62.4752 101.446Z" fill="#FAD399"/>
<path d="M60.6781 109.728C60.6076 109.833 60.6076 109.974 60.7133 110.08C60.7133 110.996 60.1847 111.948 59.5152 112.723C59.4799 112.723 59.4447 112.688 59.4094 112.688C59.3742 112.688 59.3742 112.688 59.339 112.688C58.3523 111.948 57.0132 111.701 55.7798 111.912C55.8503 110.75 55.5331 109.551 54.8283 108.67C54.8635 108.67 54.8988 108.67 54.934 108.635C56.2379 107.155 58.458 106.767 59.938 108.283C60.3609 108.741 60.5723 109.234 60.6781 109.728ZM60.1847 109.587C60.2904 109.481 60.079 109.34 59.9733 109.446C59.8323 109.587 59.6561 109.728 59.5152 109.833C59.4447 109.728 59.4094 109.622 59.339 109.551C59.2685 109.446 59.0923 109.551 59.1628 109.657C59.2332 109.763 59.2685 109.869 59.3037 109.974C59.1628 110.045 59.0218 110.15 58.8808 110.186C58.7399 110.256 58.8104 110.468 58.9513 110.397C59.0923 110.362 59.2332 110.291 59.3742 110.221C59.4094 110.362 59.4447 110.503 59.4799 110.644C59.5504 110.785 59.7266 110.749 59.7618 110.609C59.7618 110.432 59.7266 110.256 59.6561 110.08C59.8676 109.939 60.0437 109.763 60.1847 109.587Z" fill="#EE6A71"/>
<path d="M58.9513 141.337C59.9733 141.126 61.1009 140.879 62.2286 140.597C60.6428 146.482 59.2685 152.438 57.9646 158.393V158.428C56.4141 158.745 54.8283 158.957 53.2425 159.063C54.2292 153.389 55.0397 147.645 55.7445 141.936C56.7665 141.76 57.8589 141.549 58.9513 141.337Z" fill="#99D9D7"/>
<path d="M58.916 113.04C60.8894 114.379 59.9027 117.339 58.1408 118.361C56.6607 119.242 54.5816 118.784 53.5596 117.41C52.5025 115.93 52.9958 114.132 54.1587 112.899C55.7093 112.159 57.4712 112.053 58.916 113.04ZM55.4626 114.203C55.6035 114.203 55.6388 113.991 55.4978 113.956C55.3569 113.921 55.1807 113.921 55.0397 113.921C55.0045 113.815 55.0045 113.745 54.9692 113.639C54.934 113.498 54.7225 113.569 54.7578 113.71C54.793 113.78 54.793 113.85 54.793 113.956C54.5816 113.991 54.3702 114.062 54.194 114.168C54.1235 114.238 54.1587 114.344 54.2644 114.344C54.4406 114.309 54.6521 114.238 54.8283 114.238C54.8635 114.414 54.8987 114.555 54.9692 114.696C55.0397 114.802 55.2159 114.767 55.2159 114.626C55.2159 114.485 55.1807 114.344 55.1454 114.238C55.2511 114.168 55.3569 114.203 55.4626 114.203Z" fill="#EE6A71"/>
<path d="M55.6388 107.366C55.6388 107.437 55.6741 107.507 55.7093 107.543C55.3569 107.789 55.0045 108.071 54.7226 108.459C54.1588 103.737 49.9653 100.283 45.4194 99.5785C47.2166 99.3318 48.9786 98.6975 50.2472 97.5346C51.0929 99.1909 53.1721 100.671 55.1102 100.283C54.6874 101.834 54.6521 104.019 56.3084 104.759C55.7445 105.464 55.5683 106.45 55.6388 107.366Z" fill="#66C7C2"/>
<path d="M54.194 108.635C55.1102 109.516 55.3921 110.749 55.3216 111.983C54.7226 112.124 54.1587 112.335 53.7006 112.652C53.5597 112.758 53.5597 112.934 53.6654 113.04C53.2778 113.392 52.9606 113.851 52.7844 114.344C49.5776 114.731 47.4633 111.031 49.8595 108.6C51.0224 107.402 52.9958 107.507 54.194 108.635ZM51.8682 112.441C51.9739 112.37 51.9387 112.194 51.7625 112.229C51.551 112.265 51.3748 112.335 51.1634 112.37C51.1986 112.194 51.2691 112.053 51.3748 111.877C51.4453 111.771 51.3044 111.63 51.1986 111.701C50.9872 111.877 50.8815 112.089 50.8462 112.335C50.7053 112.3 50.5291 112.265 50.3881 112.229C50.2472 112.159 50.1767 112.406 50.2824 112.441C50.4234 112.511 50.6348 112.582 50.8462 112.617C50.8815 112.829 50.9872 113.04 51.1282 113.181C51.1986 113.287 51.3748 113.146 51.3043 113.04C51.1986 112.899 51.1634 112.758 51.1634 112.617C51.4453 112.652 51.692 112.582 51.8682 112.441Z" fill="#EE6A71"/>
<path d="M54.6521 108.494C54.3702 108.212 54.053 107.93 53.6302 107.719C52.8901 107.331 52.0444 107.225 51.2691 107.366C50.7053 106.591 49.6481 106.345 48.7671 106.626C48.5557 105.886 48.5557 105.146 47.7804 104.723C47.0404 104.336 46.2299 104.512 45.4898 104.794C45.3489 103.666 45.3841 102.539 44.7851 101.552C44.3622 100.847 43.7279 100.283 43.0583 99.8604C45.6308 99.79 48.1328 100.389 50.2472 101.904C52.5377 103.596 53.7359 105.886 54.6521 108.494Z" fill="#66C7C2"/>
<path d="M55.2159 141.972C54.2997 147.61 53.5244 153.354 52.9253 159.027C51.9034 159.098 50.8815 159.098 49.8243 159.063C49.93 153.495 49.8243 147.962 49.7538 142.394C51.6215 142.394 53.4187 142.253 55.2159 141.972Z" fill="#66C7C2"/>
<path d="M52.6787 114.696C52.5025 115.33 52.5377 116 52.7139 116.634C50.8815 116.035 48.5909 116.388 47.2871 114.767C45.1375 112.159 47.7099 108.212 50.3529 107.19C50.5291 107.261 50.67 107.402 50.811 107.507C50.2472 107.719 49.7186 108.071 49.2957 108.565C47.1109 111.278 49.2605 115.401 52.6787 114.696Z" fill="#FDE9CC"/>
<path d="M49.4014 142.465C49.4366 148.033 49.4366 153.565 49.6128 159.133C48.5204 159.098 47.4985 159.027 46.4765 158.922C46.7584 153.424 46.5118 147.892 46.0536 142.394C47.1813 142.465 48.309 142.465 49.4014 142.465Z" fill="#99D9D7"/>
<path d="M45.6308 142.359C46.0889 147.857 46.1594 153.354 46.2299 158.886C45.4194 158.781 44.6088 158.64 43.8336 158.499C43.4812 155.821 43.0583 153.142 42.6707 150.464C42.2478 147.645 42.0011 144.72 41.4021 141.936C42.6354 142.112 43.8336 142.253 44.9612 142.359C45.2079 142.324 45.4194 142.324 45.6308 142.359Z" fill="#66C7C2"/>
<path d="M42.1421 149.9C42.5649 152.72 43.0231 155.574 43.5516 158.393C42.6002 158.182 41.684 157.865 40.803 157.512C39.6753 151.98 38.4772 146.377 37.0323 140.914C38.3362 141.302 39.7105 141.619 41.0496 141.831C41.1554 144.544 41.7192 147.258 42.1421 149.9Z" fill="#99D9D7"/>
<path d="M40.4506 157.371C39.2877 156.878 38.16 156.244 37.0676 155.398C37.0676 155.363 37.0676 155.327 37.0676 155.292C35.9399 151.662 34.7418 148.033 33.5437 144.438C32.8036 142.254 32.1341 139.928 31.3236 137.708C31.676 138.131 32.0988 138.553 32.6274 138.906C33.7551 139.681 35.0942 140.28 36.4685 140.773C37.5962 146.341 38.9705 151.874 40.4506 157.371Z" fill="#66C7C2"/>
<path d="M72.0956 117.727C71.4261 118.608 70.7213 119.454 70.2279 120.476C69.805 121.392 69.5936 122.308 69.3117 123.224C69.3469 123.224 69.4174 123.259 69.4527 123.33C70.0165 124.07 70.0165 124.986 69.6288 125.726C70.5451 126.466 70.6156 127.77 69.946 128.757C70.0165 128.757 70.087 128.792 70.1222 128.863C70.7918 130.131 70.686 131.505 70.0165 132.633C70.0165 132.633 70.0517 132.633 70.0517 132.668C71.0737 133.69 70.7213 134.924 69.8755 135.805C68.9241 139.188 67.7612 142.5 66.8097 145.883C65.8935 149.231 65.2239 152.614 64.3077 155.962C64.3429 156.032 64.3077 156.138 64.2372 156.173C64.202 156.244 64.1315 156.279 64.061 156.279C59.198 158.746 53.7711 159.45 48.3442 159.204C44.3974 159.027 39.1115 158.534 36.4333 155.186C36.3628 155.186 36.2571 155.151 36.2219 155.045C35.059 151.521 33.9313 147.998 32.7684 144.509C31.6055 141.055 30.0902 137.531 29.3854 133.937C29.3854 133.902 29.3854 133.902 29.4206 133.902C29.174 132.492 29.2092 131.012 29.3854 129.603C28.6101 127.77 28.4692 125.726 29.3854 123.859C29.3854 123.823 29.4206 123.823 29.4206 123.823C29.2092 122.484 29.3149 121.075 29.8083 119.806C30.4074 118.22 31.6407 116.458 33.5084 116.987C34.0723 113.815 37.1381 111.56 40.5211 112.159C41.0497 111.807 41.7192 111.56 42.5297 111.525C42.565 111.525 42.6002 111.525 42.6354 111.56C43.5164 109.023 45.7013 107.049 47.7804 105.499C47.7099 105.323 47.6394 105.111 47.5337 104.97C46.9346 104.265 45.8422 104.547 45.1022 104.759C45.067 104.759 45.0317 104.759 44.9965 104.723C44.926 104.723 44.8203 104.688 44.785 104.583C44.4326 103.702 44.6441 102.68 44.2565 101.799C43.8336 100.812 42.9878 100.142 42.1421 99.508C42.0011 99.4023 42.0716 99.2261 42.2126 99.1909C42.2478 99.1557 42.2478 99.1557 42.283 99.1204C42.2478 99.0499 42.3183 98.9442 42.424 98.9442C45.3136 98.9442 47.3575 98.028 49.8948 96.7594C50.0005 96.7241 50.1062 96.7946 50.1062 96.8651L50.1414 96.9003C50.6348 97.7813 51.3748 98.4509 52.2558 98.909C53.2073 99.3671 54.0883 99.3319 55.1102 99.3671C55.3216 99.3671 55.3569 99.649 55.1807 99.7195C55.0397 100.565 54.934 101.446 55.1102 102.186C55.3569 101.129 57.0131 100.6 57.9294 100.248C59.4447 99.7195 61.4181 99.508 62.8981 100.319C63.9553 100.918 63.5677 101.341 62.8981 102.116C61.2066 104.124 60.678 106.732 61.4181 109.234C61.4181 109.269 61.4181 109.305 61.4181 109.305C61.559 109.34 61.6647 109.34 61.8057 109.34C62.1581 109.34 62.4752 109.164 62.8276 109.128C62.8981 109.128 62.9686 109.128 63.0391 109.164C63.1096 109.164 63.2153 109.199 63.2505 109.305C63.7791 111.842 66.2459 112.124 68.4307 111.736C68.5012 111.736 68.5717 111.736 68.6069 111.771C68.7126 111.771 68.8183 111.842 68.8183 111.983C68.7831 113.251 68.9593 114.414 69.7346 115.472C70.3336 116.282 71.1089 116.74 71.9899 117.198C72.0604 117.198 72.1308 117.233 72.1661 117.304C72.1661 117.304 72.2013 117.304 72.2013 117.339C72.2718 117.551 72.2366 117.762 72.0956 117.727ZM68.9241 122.66C69.206 120.828 70.3689 118.855 71.6023 117.656C69.4527 117.057 68.0783 114.52 68.3602 112.37C66.2459 112.864 62.8981 112.441 62.8981 109.692C62.6514 109.904 62.0876 109.974 61.8409 110.009C61.4885 110.045 61.1009 110.009 60.7837 109.904C60.819 110.89 60.5018 111.912 59.6913 112.476C64.3429 113.745 68.0078 117.903 68.9241 122.66ZM67.444 136.721C68.6069 136.298 71.3556 134.747 69.805 133.021C69.5584 133.338 69.2412 133.655 68.8888 133.937C67.0211 135.347 64.5544 135.382 62.3695 134.818C59.3389 134.043 56.8017 132.14 53.9121 131.118C50.5996 129.92 47.1461 130.272 43.7279 130.554C38.9353 130.942 32.557 130.836 30.1254 125.797C29.8788 125.268 29.7026 124.704 29.5616 124.14C27.3063 133.726 38.9705 137.038 46.3003 137.39C50.4586 137.602 54.5464 136.615 58.7046 136.791C60.6428 136.897 62.581 137.249 64.5191 137.214C65.4706 137.179 66.4925 137.073 67.444 136.721ZM64.801 134.536C67.6202 134.571 71.2146 132.457 69.7346 129.144V129.109C68.2897 130.73 65.3296 130.942 63.321 130.906C60.5018 130.871 57.7532 130.061 55.1454 128.968C51.9739 127.594 49.1195 125.585 45.6308 125.127C41.1554 124.528 34.4951 124.88 33.5084 119.031C33.4027 118.432 33.4027 117.868 33.4732 117.304C30.4778 116.74 29.6321 121.638 29.9845 123.682C30.3721 125.902 31.7817 127.664 33.7199 128.757C37.6667 130.942 42.283 130.025 46.547 129.779C48.5909 129.673 50.6348 129.638 52.6082 130.131C54.4759 130.589 56.2026 131.47 57.8941 132.316C60.079 133.408 62.3343 134.536 64.801 134.536ZM67.6202 129.673C68.8183 129.25 70.9327 127.488 69.3822 126.184C69.2412 126.361 69.065 126.537 68.8536 126.678C67.4792 127.664 65.5411 127.241 64.061 126.713C61.6295 125.867 59.4446 124.599 56.9426 123.999C54.2292 123.365 51.4805 123.365 48.7319 123.189C45.1727 122.942 40.662 121.956 39.1467 118.22C38.3362 116.247 38.6886 113.78 40.1334 112.476C35.5171 112.3 32.0284 117.445 35.1647 121.427C37.7724 124.775 42.6707 124.035 46.3708 124.634C50.4234 125.303 53.8416 128.017 57.6827 129.285C59.797 129.99 62.0171 130.413 64.2725 130.307C65.4001 130.237 66.563 130.061 67.6202 129.673ZM69.4527 136.228C69.3117 136.333 69.1707 136.439 69.0298 136.545C68.4659 137.214 67.7612 137.778 66.9859 138.236C65.3649 144.403 63.7791 150.605 61.9467 156.737C62.6162 156.455 63.2505 156.173 63.8848 155.856C64.4487 152.367 65.4706 148.879 66.4221 145.496C67.3383 142.359 68.2193 139.223 69.4527 136.228ZM66.7745 126.642C68.2545 126.607 70.0165 125.444 69.1707 123.788C69.1355 123.859 69.1355 123.929 69.1003 123.999C69.1003 124.07 69.1003 124.105 69.1003 124.176C69.1003 124.211 69.1355 124.246 69.1355 124.246C69.1707 124.317 69.1355 124.352 69.1003 124.387C69.1003 124.599 68.7831 124.634 68.7479 124.422C68.7479 124.352 68.7126 124.281 68.7126 124.211C68.0431 123.189 67.1973 122.66 66.2459 122.308C66.2459 122.308 66.2459 122.343 66.2106 122.343C64.0258 124.775 60.4666 122.167 58.1408 121.392C54.2997 120.123 50.1767 121.568 46.3708 119.735C43.8688 118.537 41.9659 116.071 42.2478 113.146C42.283 112.688 42.3888 112.265 42.5297 111.807C38.2657 112.511 38.5829 117.833 41.2259 120.123C43.8688 122.449 47.6042 122.555 50.9519 122.66C54.053 122.837 57.0484 123.189 59.9732 124.317C61.4181 124.88 62.7924 125.62 64.2372 126.149C65.0477 126.396 65.8935 126.642 66.7745 126.642ZM68.5364 123.224C67.4088 118.185 64.2725 114.555 59.3742 112.617C59.5151 112.758 59.6561 112.899 59.7618 113.075C60.5371 114.203 60.3256 115.612 59.6208 116.775C59.8675 116.881 60.0437 117.128 60.1142 117.339C60.1847 117.515 60.2199 117.762 60.2199 117.974C60.9952 117.586 62.1581 118.009 62.7219 118.608C63.0391 118.96 63.2505 119.454 63.2857 119.947C63.321 120.229 63.2857 120.511 63.2153 120.793C63.2153 120.828 63.1096 121.075 63.0038 121.251C64.942 121.145 67.2678 121.674 68.5364 123.224ZM67.3735 137.32C66.2811 137.672 65.083 137.778 63.9553 137.778C61.1009 137.743 58.3522 137.214 55.4626 137.426C52.6082 137.637 49.7538 138.06 46.8642 137.99C42.0716 137.849 36.6095 136.968 32.6979 133.972C31.4645 133.021 30.3369 131.682 29.5968 130.202C29.5968 131.858 29.5264 133.514 30.055 135.065C30.8655 137.355 32.8036 138.624 34.9885 139.434C38.6181 140.809 42.5297 141.443 46.3708 141.619C49.2605 141.725 52.1501 141.549 55.0045 141.126C55.0397 141.126 55.075 141.091 55.1102 141.126C56.2026 140.95 57.295 140.738 58.3875 140.527C61.4181 139.787 64.801 139.082 67.3735 137.32ZM57.1893 120.581C59.6208 121.075 63.4267 124.176 65.7173 122.202C64.7658 121.956 63.7086 121.885 62.6162 121.744C62.3695 121.709 62.3695 121.357 62.6162 121.357H62.6514C62.6867 121.145 62.7924 120.969 62.8276 120.793C62.9334 120.299 62.8629 119.771 62.581 119.313C62.299 118.89 61.8762 118.573 61.3828 118.432C60.8895 118.326 60.5371 118.467 60.0437 118.502C59.9732 118.502 59.9028 118.467 59.8675 118.396C59.8675 118.396 59.8675 118.361 59.8675 118.326V118.291C59.9028 118.044 59.8675 117.833 59.7266 117.586C59.6561 117.48 59.5504 117.374 59.4447 117.304C59.4094 117.269 59.3742 117.269 59.3389 117.233C59.0218 117.692 58.5989 118.079 58.176 118.396C56.4845 119.524 53.9825 119.066 52.7844 117.374C52.6434 117.198 52.5377 116.987 52.4672 116.775C49.789 116.247 46.1594 116.247 45.666 112.829C45.3136 110.362 47.2166 107.296 49.6833 106.732C49.2957 106.556 48.8376 106.556 48.3442 106.662C48.2737 106.697 48.2033 106.697 48.1328 106.626C47.9214 106.415 47.8861 106.133 47.8156 105.851C45.5603 108.036 42.7764 110.291 42.7059 113.71C42.6354 116.987 45.5603 119.207 48.4852 119.947C51.4101 120.687 54.3349 119.982 57.1893 120.581ZM62.8981 101.552C62.9334 101.446 62.9334 101.341 62.9334 101.27C61.8762 101.27 60.6428 102.926 60.1494 103.737C59.5856 104.653 59.2332 105.675 59.0923 106.767C59.057 106.908 58.9161 106.944 58.7751 106.873C58.7046 106.838 58.6694 106.767 58.6694 106.697C58.7751 105.252 59.3037 103.878 60.2199 102.75C60.5723 102.292 61.3828 101.376 62.1228 101.094C59.7266 101.446 57.7532 102.116 55.6036 103.384C55.7797 103.631 56.0264 103.878 56.3436 104.089C56.3436 104.089 56.3788 104.089 56.3788 104.124C56.5198 104.23 56.4493 104.477 56.3083 104.477C55.9559 105.287 55.7093 106.027 55.7445 106.908C56.6607 106.45 57.7532 106.415 58.7046 106.838C59.0923 107.014 59.4799 107.261 59.797 107.613C60.2199 108.036 60.5018 108.635 60.6076 109.269C60.678 109.305 60.7485 109.305 60.8542 109.34C60.2552 107.155 60.5018 104.829 61.7 102.891C61.9819 102.574 62.7924 101.904 62.8981 101.552ZM66.3868 138.589C65.1534 139.258 63.7439 139.716 62.3695 140.104C62.3695 140.139 62.3695 140.174 62.3695 140.21C61.0304 146.165 59.4799 152.085 57.8941 158.006C59.198 157.724 60.4666 157.336 61.7352 156.843C63.1096 150.711 64.7658 144.65 66.3868 138.589ZM55.3921 103.067C57.3303 101.552 60.0437 100.6 62.5105 100.777C61.9114 100.424 60.8542 100.389 60.3609 100.389C58.9513 100.389 55.8855 101.059 55.2159 102.503C55.2159 102.539 55.1807 102.539 55.1454 102.539C55.2159 102.715 55.2864 102.891 55.3921 103.067ZM60.3256 109.727C60.2199 109.622 60.2199 109.481 60.2904 109.375C60.2199 108.882 59.9732 108.388 59.5504 107.966C58.0703 106.45 55.8502 106.838 54.5464 108.318C54.5111 108.353 54.4759 108.353 54.4406 108.353C55.1454 109.234 55.4626 110.432 55.3921 111.595C56.6607 111.419 57.9646 111.63 58.9513 112.37C58.9865 112.37 58.9865 112.37 59.0218 112.37C59.057 112.37 59.0923 112.37 59.1275 112.406C59.8323 111.595 60.3256 110.644 60.3256 109.727ZM61.8762 140.245C60.7485 140.527 59.6208 140.773 58.5989 140.985C57.5417 141.232 56.4493 141.408 55.3569 141.584C54.6873 147.293 53.8768 153.037 52.8549 158.71C54.4406 158.605 56.0264 158.393 57.577 158.076C57.577 158.076 57.577 158.076 57.577 158.041C58.9161 152.085 60.2904 146.13 61.8762 140.245ZM57.8236 118.044C59.5856 117.022 60.5723 114.062 58.5989 112.723C57.1541 111.736 55.3569 111.842 53.8768 112.582C52.7139 113.815 52.2206 115.612 53.2778 117.093C54.2292 118.467 56.3083 118.925 57.8236 118.044ZM55.3921 107.155C55.3569 107.12 55.3216 107.049 55.3216 106.979C55.2159 106.063 55.4274 105.076 55.9912 104.371C54.3349 103.631 54.3702 101.446 54.793 99.8957C52.8549 100.319 50.7405 98.8033 49.93 97.147C48.6261 98.3451 46.8289 98.9795 45.067 99.2261C49.6128 99.9309 53.8063 103.384 54.4054 108.071C54.6873 107.719 55.0045 107.402 55.3921 107.155ZM54.9692 111.63C55.075 110.397 54.7578 109.164 53.8416 108.283C52.6787 107.155 50.67 107.049 49.5071 108.247C47.1108 110.714 49.2252 114.379 52.432 113.991C52.6082 113.498 52.8901 113.04 53.313 112.688C53.2073 112.582 53.172 112.406 53.3482 112.3C53.8063 112.018 54.3702 111.771 54.9692 111.63ZM54.3702 108.177C54.3702 108.142 54.3349 108.142 54.3349 108.142C54.3349 108.142 54.3349 108.142 54.3349 108.106C53.4187 105.534 52.2206 103.208 49.93 101.587C47.8156 100.037 45.3136 99.4728 42.7412 99.5433C43.4107 100.001 44.045 100.53 44.4679 101.235C45.067 102.221 44.9965 103.384 45.1727 104.477C45.9127 104.16 46.7232 103.983 47.4632 104.406C48.2033 104.829 48.2385 105.569 48.4499 106.309C49.3309 105.992 50.3881 106.274 50.9519 107.049C51.7272 106.908 52.573 107.014 53.313 107.402C53.7006 107.613 54.053 107.86 54.3349 108.177C54.3349 108.142 54.3349 108.177 54.3702 108.177ZM52.6082 158.71C53.2073 153.002 53.9825 147.293 54.8988 141.654C53.1016 141.901 51.3043 142.077 49.4719 142.113C49.5424 147.68 49.6128 153.213 49.5424 158.781C50.5291 158.781 51.5863 158.746 52.6082 158.71ZM52.3263 116.282C52.1501 115.648 52.1501 114.978 52.291 114.344C48.8728 115.049 46.7232 110.926 48.9081 108.212C49.3309 107.719 49.8243 107.331 50.4234 107.155C50.2824 107.014 50.1414 106.908 49.9652 106.838C47.3223 107.895 44.7498 111.807 46.8994 114.414C48.2385 116.035 50.4938 115.683 52.3263 116.282ZM49.2957 158.746C49.0843 153.213 49.1195 147.645 49.0843 142.077C47.9566 142.113 46.8642 142.077 45.7717 142.007C46.1946 147.504 46.4413 153.037 46.1946 158.534C47.1461 158.675 48.2033 158.71 49.2957 158.746ZM45.9127 158.534C45.8422 153.002 45.7365 147.539 45.3136 142.007C45.1022 142.007 44.8555 141.972 44.6441 141.972C43.5164 141.866 42.3183 141.76 41.0849 141.549C41.684 144.333 41.9306 147.257 42.3535 150.077C42.7412 152.755 43.164 155.433 43.5164 158.111C44.2565 158.287 45.067 158.428 45.9127 158.534ZM43.1993 158.041C42.6707 155.222 42.2126 152.402 41.7897 149.548C41.3668 146.87 40.8382 144.156 40.662 141.478C39.3229 141.267 37.9486 140.985 36.6447 140.562C38.0895 146.024 39.3229 151.592 40.4154 157.16C41.3316 157.512 42.2478 157.829 43.1993 158.041ZM36.7152 155.081C37.8076 155.891 38.9353 156.525 40.0982 157.054C38.6181 151.557 37.2438 145.989 36.1161 140.456C34.7418 139.998 33.4027 139.399 32.275 138.589C31.7464 138.236 31.3236 137.849 30.9712 137.39C31.7817 139.611 32.4512 141.936 33.1913 144.121C34.3894 147.716 35.5875 151.345 36.7152 154.975C36.7152 155.01 36.7152 155.045 36.7152 155.081Z" fill="#252A34"/>
<path d="M59.6561 109.058C59.7618 108.952 59.938 109.093 59.8675 109.199C59.7266 109.41 59.5504 109.551 59.3389 109.692C59.4094 109.868 59.4446 110.045 59.4446 110.221C59.4446 110.362 59.2332 110.397 59.1627 110.256C59.0922 110.115 59.0922 109.974 59.057 109.833C58.916 109.904 58.7751 109.974 58.6341 110.009C58.4932 110.045 58.4227 109.833 58.5637 109.798C58.7046 109.727 58.8456 109.657 58.9865 109.587C58.9513 109.481 58.8808 109.375 58.8456 109.269C58.7751 109.128 58.9513 109.023 59.0218 109.164C59.0922 109.234 59.1275 109.34 59.198 109.446C59.3389 109.34 59.4799 109.199 59.6561 109.058Z" fill="#252A34"/>
<path d="M55.1454 113.604C55.2864 113.639 55.2511 113.85 55.1102 113.85C55.0045 113.85 54.8635 113.85 54.7578 113.85C54.793 113.991 54.8283 114.097 54.8283 114.238C54.8283 114.344 54.6521 114.414 54.5816 114.309C54.5111 114.168 54.4759 114.027 54.4406 113.85C54.2292 113.886 54.053 113.921 53.8768 113.956C53.7711 113.956 53.7358 113.85 53.8063 113.78C53.9825 113.674 54.194 113.604 54.4054 113.569C54.4054 113.498 54.3702 113.392 54.3702 113.322C54.3349 113.181 54.5463 113.11 54.5816 113.251C54.6168 113.357 54.6168 113.428 54.6521 113.533C54.8635 113.569 55.0045 113.569 55.1454 113.604Z" fill="#252A34"/>
<path d="M51.4453 111.877C51.5863 111.842 51.6567 112.018 51.551 112.089C51.3748 112.23 51.0929 112.3 50.8462 112.3C50.8462 112.441 50.9167 112.582 50.9872 112.723C51.0577 112.829 50.8815 112.934 50.811 112.864C50.67 112.688 50.5643 112.511 50.5291 112.3C50.3176 112.265 50.1414 112.194 49.9652 112.124C49.8243 112.053 49.93 111.842 50.071 111.912C50.2119 111.983 50.3529 112.018 50.5291 112.018C50.5643 111.771 50.67 111.525 50.8815 111.384C50.9872 111.313 51.1281 111.454 51.0577 111.56C50.9519 111.701 50.8815 111.877 50.8462 112.053C51.0577 111.983 51.2339 111.912 51.4453 111.877Z" fill="#252A34"/>
<circle cx="206" cy="40" r="40" fill="white"/>
<circle cx="206" cy="40" r="39.75" stroke="#FF2E63" stroke-opacity="0.2" stroke-width="0.5"/>
<circle cx="206.333" cy="40.3333" r="35" fill="white"/>
<circle cx="206.333" cy="40.3333" r="34.75" stroke="#FF2E63" stroke-opacity="0.2" stroke-width="0.5"/>
<path d="M218.33 50.5731C219.597 49.8534 220.633 48.8748 221.41 47.6946C219.482 53.0486 217.697 58.3162 217.121 64.0444C216.229 64.4186 215.337 64.764 214.416 65.0519C214.876 59.957 216.028 55.2938 218.33 50.6882C218.33 50.6594 218.33 50.6019 218.33 50.5731Z" fill="#F8BE66"/>
<path d="M213.495 51.8108C214.963 51.6669 216.431 51.4654 217.783 50.8609C215.452 55.1786 214.07 60.2448 214.185 65.1382C213.034 65.5124 211.854 65.8002 210.674 66.0017C210.933 61.1947 211.22 56.5891 212.372 51.8971C212.746 51.8683 213.12 51.8396 213.495 51.8108Z" fill="#F8BE66"/>
<path d="M211.911 51.926C210.76 56.4453 210.012 61.3963 210.443 66.0306C209.119 66.2609 207.766 66.3761 206.413 66.4048C206.529 61.5978 206.5 56.7907 206.672 51.9836C208.428 52.07 210.155 52.0412 211.911 51.926Z" fill="#F8BE66"/>
<path d="M206.212 66.4335C206.154 66.4335 206.068 66.4335 206.01 66.4335C204.859 66.4335 203.679 66.376 202.527 66.232C202.786 61.281 201.75 56.0134 199.793 51.4654C201.952 51.8108 204.168 51.9259 206.298 52.0123C206.039 56.7906 205.895 61.6552 206.212 66.4335Z" fill="#F8BE66"/>
<path d="M199.304 51.379C201.146 56.2149 202.038 60.9932 202.211 66.1745C201.146 66.0305 200.081 65.7715 199.073 65.4261C198.584 60.2448 197.173 55.1211 195.302 50.2852C196.598 50.8033 197.922 51.12 199.304 51.379Z" fill="#F8BE66"/>
<path d="M194.813 50.17C196.684 55.0923 197.864 60.1296 198.757 65.3109C197.663 64.8791 196.598 64.3322 195.648 63.5838C195.446 60.475 194.468 57.2224 193.547 54.2575C192.885 52.1274 192.194 49.8246 191.215 47.7233C192.251 48.7596 193.575 49.5656 194.756 50.0837C194.756 50.0837 194.784 50.0837 194.784 50.1125C194.813 50.1125 194.813 50.1413 194.813 50.17Z" fill="#F8BE66"/>
<path d="M219.395 28.9556C222.763 32.122 226.908 36.3246 224.375 40.8726C222.993 43.3769 220.374 44.4707 217.611 44.0389C215.452 43.7223 213.264 42.8587 211.077 43.5208C210.271 43.7798 209.522 44.1828 208.918 44.7298C207.939 45.5933 207.334 46.7735 206.154 47.378C203.391 48.8172 200.397 46.8886 198.469 44.9888C197.231 43.7798 196.195 42.9163 194.439 43.5784C193 44.1253 191.877 44.6434 190.409 43.7511C188.998 42.8875 188.221 41.2468 188.164 39.6348C188.049 36.4685 190.064 33.7915 192.366 31.8629C194.324 30.2509 196.857 29.1283 198.238 26.9407C198.929 26.9982 199.649 27.027 200.369 26.9407C199.073 28.5238 197.72 29.7616 195.821 30.7115C195.734 30.7691 195.734 30.8842 195.792 30.9706C195.792 31.0281 195.792 31.0857 195.849 31.1433C196.627 31.978 197.922 32.6113 199.044 32.9567C198.872 33.6476 198.901 34.396 198.843 35.1156C198.814 35.6049 198.584 36.4685 198.843 36.9002C198.843 36.929 198.872 36.929 198.901 36.929C198.843 37.0442 198.958 37.1881 199.102 37.1881C203.305 36.526 206.874 32.0356 207.248 27.6891C208.86 31.8053 212.919 35.0005 217.237 35.7201C217.409 35.7489 217.524 35.5186 217.38 35.4322V35.4034C217.006 33.9066 216.488 32.1795 215.797 30.7691C216.949 30.1358 218.244 29.704 219.395 28.9556ZM223.915 38.8288C224.318 38.3971 224.202 37.6774 223.742 37.332C223.339 37.0442 222.475 37.1017 222.331 37.6774C222.331 37.735 222.331 37.7638 222.36 37.7926C222.159 38.0804 222.159 38.4834 222.389 38.7713C222.763 39.2606 223.483 39.2606 223.915 38.8288ZM221.238 42.283C222.044 41.88 222.331 40.7574 221.871 40.009C221.382 39.203 220.144 39.0015 219.453 39.6348C219.395 39.6636 219.395 39.7212 219.395 39.7787C218.964 40.1817 218.82 40.9014 219.021 41.4483C219.338 42.3118 220.432 42.686 221.238 42.283ZM221.209 38.2531C221.583 38.0517 221.756 37.5911 221.497 37.2457C221.295 36.9578 220.691 36.7563 220.432 37.073L220.403 37.1017C220.173 37.2745 220.115 37.6199 220.201 37.8789C220.374 38.3107 220.835 38.4259 221.209 38.2531ZM210.76 36.3821C211.537 36.2382 212.084 35.4322 211.94 34.655C211.796 33.7627 210.76 33.187 209.954 33.6763C209.896 33.7051 209.868 33.7627 209.868 33.8203C209.407 34.0218 209.062 34.5975 209.09 35.1156C209.148 35.9216 209.983 36.4973 210.76 36.3821ZM208.918 33.6763C209.349 33.4173 209.465 32.7552 209.148 32.3522C208.86 31.978 208.14 31.8341 207.853 32.2659C207.853 32.2947 207.824 32.2947 207.824 32.2947C207.536 32.5249 207.45 32.9855 207.622 33.3309C207.853 33.7915 208.486 33.9354 208.918 33.6763ZM207.881 35.6337C208.256 35.4898 208.486 35.0004 208.256 34.6262C208.112 34.4247 207.68 34.252 207.478 34.4535C207.421 34.4535 207.363 34.4823 207.306 34.5111C207.133 34.5975 207.018 34.7702 207.018 34.9717C206.989 35.4034 207.45 35.7776 207.881 35.6337ZM194.669 42.024C195.072 41.7937 195.245 41.218 194.871 40.8726C194.727 40.7286 194.439 40.6423 194.209 40.6711C193.777 40.6423 193.489 41.1028 193.604 41.5058C193.69 41.9664 194.209 42.2543 194.669 42.024ZM194.496 38.6849C196.252 37.4184 193.633 35.2595 192.712 36.6124C192.107 36.9578 191.963 37.7638 192.366 38.3395C192.827 39.0591 193.834 39.1743 194.496 38.6849ZM193.028 35.0005C193.316 34.6262 193.23 34.0505 192.856 33.7627C192.683 33.6188 192.424 33.59 192.222 33.6188C192.021 33.6476 191.733 33.7915 191.675 34.0218C191.675 34.0793 191.675 34.1081 191.704 34.1369C191.532 34.4248 191.532 34.7702 191.791 35.0292C192.107 35.4034 192.712 35.3747 193.028 35.0005ZM191.848 41.3907C192.194 40.9589 192.078 40.2681 191.618 39.9802C191.157 39.6636 190.38 39.8075 190.179 40.3544C190.179 40.3832 190.179 40.412 190.179 40.412C189.977 40.7286 189.948 41.1604 190.265 41.4771C190.668 41.88 191.445 41.8513 191.848 41.3907ZM190.409 38.6561C190.697 38.4259 190.726 38.0229 190.438 37.7926C190.236 37.6199 189.661 37.5623 189.632 37.9077C189.517 38.0804 189.488 38.2819 189.574 38.4834C189.718 38.8288 190.121 38.8864 190.409 38.6561Z" fill="#936037"/>
<path d="M223.368 37.5623C223.713 37.7063 223.857 38.138 223.684 38.4547C223.512 38.7425 223.109 38.8577 222.821 38.6849C222.418 38.4547 222.447 37.9365 222.792 37.6487C222.965 37.5335 223.137 37.476 223.368 37.5623Z" fill="#F8BE66"/>
<path d="M221.497 40.2105C221.842 40.7574 221.612 41.6209 221.007 41.9088C220.374 42.1966 219.539 41.88 219.338 41.1892C219.194 40.6422 219.453 40.1817 219.827 39.8075C220.403 39.5772 221.151 39.6348 221.497 40.2105Z" fill="#F8BE66"/>
<path d="M221.209 20.5792C221.641 23.4289 219.251 26.7391 216.344 26.8543C213.523 26.9406 210.818 25.6453 208.342 24.4939C208.428 24.3788 208.515 24.2348 208.572 24.0909C208.745 23.7167 208.831 23.0834 208.803 22.5077C210.645 22.9683 212.602 22.7956 214.473 22.6229C215.826 22.479 217.265 22.2487 218.388 21.4139C219.914 20.2337 219.798 17.7295 217.927 17.384C217.899 17.3552 217.899 17.3265 217.841 17.3265C213.984 16.4053 211.048 19.3414 208.659 21.932C208.659 21.9033 208.63 21.8745 208.63 21.8457C208.687 21.8457 208.745 21.7881 208.774 21.7306C209.925 19.4278 211.739 17.3553 214.3 16.6932C217.265 15.8584 220.72 17.3553 221.209 20.5792Z" fill="#EE6A71"/>
<path d="M221.18 37.3896C221.353 37.5911 221.238 37.8213 221.036 37.9365C220.835 38.0516 220.604 37.9653 220.518 37.735C220.46 37.5911 220.489 37.4471 220.547 37.3032C220.547 37.3032 220.576 37.3032 220.604 37.3032C220.806 37.2456 221.007 37.1881 221.18 37.3896Z" fill="#F8BE66"/>
<path d="M219.395 44.6722C220.489 44.6147 221.525 44.2405 222.447 43.636C222.044 46.716 219.971 49.4793 217.064 50.5731C215.452 51.1776 213.638 51.264 211.911 51.3791C210.04 51.4943 208.198 51.5518 206.327 51.4943C202.902 51.4079 199.275 51.1201 195.993 50.055C194.353 49.5081 192.827 48.7309 191.589 47.4932C190.467 46.3706 189.948 45.1328 189.488 43.7223C189.718 43.9238 189.977 44.0965 190.265 44.2692C191.1 44.7298 192.078 44.9025 193 44.6722C193.431 44.5571 193.834 44.3268 194.237 44.1541C195.821 43.4921 196.655 43.9238 197.778 45.0177C199.476 46.6584 201.376 48.2416 203.88 48.2991C204.859 48.3279 205.895 48.0976 206.73 47.5795C207.968 46.8023 208.659 45.3919 209.896 44.5859C212.948 42.7149 216.171 44.9025 219.395 44.6722ZM220.662 46.4281C220.777 46.3418 220.633 46.1691 220.518 46.2266C220.403 46.313 220.173 46.3993 220.057 46.2842C219.971 46.1978 219.971 46.0251 220.086 45.9676C220.173 45.9388 220.115 45.7661 220.029 45.7949C219.77 45.8812 219.712 46.1978 219.856 46.3993C220.029 46.6872 220.46 46.6296 220.662 46.4281ZM219.28 48.3855C219.482 48.3567 219.626 48.184 219.597 47.9825C219.597 47.8961 219.453 47.8386 219.424 47.9537C219.395 48.0401 219.367 48.1264 219.28 48.1552C219.194 48.184 219.079 48.1264 219.05 48.0401C219.021 47.9249 218.848 47.9825 218.877 48.0976C218.935 48.2704 219.079 48.3855 219.28 48.3855ZM219.309 47.6659C219.424 47.4356 219.309 47.1477 219.05 47.0902C218.791 47.0326 218.532 47.2341 218.503 47.522C218.503 47.6659 218.676 47.6371 218.705 47.522C218.733 47.378 218.877 47.2917 218.992 47.3492C219.108 47.378 219.165 47.5219 219.136 47.6371C219.136 47.6947 219.251 47.7522 219.309 47.6659ZM210.443 45.4782C210.558 45.507 210.674 45.3343 210.53 45.2767C210.184 45.1328 209.81 45.2767 209.609 45.5646C209.551 45.6797 209.695 45.7949 209.781 45.7085C209.925 45.4782 210.184 45.4206 210.443 45.4782ZM210.069 46.9175C210.213 46.6872 210.155 46.3993 209.954 46.2554C209.752 46.0827 209.436 46.1115 209.234 46.2554C209.148 46.3418 209.263 46.5145 209.378 46.4281C209.666 46.2266 210.012 46.5145 209.896 46.8311C209.839 46.9462 210.012 47.0038 210.069 46.9175ZM209.436 46.9175C209.493 46.8311 209.349 46.6872 209.263 46.7735C209.177 46.8887 209.033 46.9462 208.889 46.8887C208.745 46.8023 208.716 46.6296 208.774 46.4857C208.803 46.3993 208.659 46.3418 208.63 46.4281C208.486 46.6296 208.572 46.9463 208.774 47.0902C209.004 47.2341 209.292 47.1477 209.436 46.9175ZM196.627 48.0976C196.886 48.2128 197.289 48.0401 197.26 47.6947C197.26 47.5795 197.058 47.522 197.03 47.6659C197.001 47.8098 196.857 47.8961 196.713 47.8386C196.54 47.7522 196.54 47.4932 196.598 47.3492C196.655 47.2341 196.511 47.1765 196.454 47.2629C196.281 47.5219 196.31 47.9537 196.627 48.0976ZM197.231 49.3354C197.26 49.1915 197.087 49.1627 197.03 49.2778C196.972 49.393 196.886 49.4793 196.77 49.5369C196.713 49.5657 196.655 49.5657 196.598 49.5657C196.569 49.5657 196.569 49.5369 196.54 49.5081C196.569 49.4505 196.54 49.393 196.483 49.393C196.367 49.393 196.31 49.4793 196.339 49.5657C196.367 49.6808 196.454 49.7672 196.569 49.796C196.886 49.8247 197.173 49.6232 197.231 49.3354ZM196.454 48.8461C196.54 48.4718 196.108 48.184 195.763 48.2991C195.59 48.3567 195.504 48.5006 195.504 48.6733C195.504 48.8173 195.619 48.9324 195.763 48.9324C195.849 48.9324 195.821 48.7885 195.734 48.7885C195.648 48.7885 195.677 48.6446 195.705 48.587C195.734 48.5006 195.849 48.5006 195.907 48.5006C196.08 48.5294 196.224 48.6446 196.224 48.8173C196.252 48.9036 196.425 48.9324 196.454 48.8461ZM193.69 46.0251C193.978 45.6221 193.604 45.0464 193.144 45.0752C193.028 45.0752 193.028 45.2767 193.144 45.2767C193.46 45.2767 193.69 45.6509 193.547 45.9388C193.46 46.0251 193.604 46.1115 193.69 46.0251ZM193.028 45.8236C193.086 45.7661 193 45.6509 192.942 45.7085C192.625 45.91 192.194 45.7661 192.165 45.3631C192.165 45.2479 191.992 45.2479 191.992 45.3631C191.992 45.8812 192.625 46.1978 193.028 45.8236ZM191.388 45.3631C191.416 45.2479 191.273 45.1904 191.215 45.2767C191.129 45.4494 190.985 45.5646 190.812 45.6221C190.697 45.6509 190.754 45.8236 190.87 45.7949C191.129 45.7949 191.33 45.6221 191.388 45.3631Z" fill="#CA9E67"/>
<path d="M219.136 19.3126C219.136 20.1762 218.417 20.867 217.755 21.27C216.891 21.7881 215.884 21.9608 214.905 22.1048C212.861 22.3638 210.846 22.3926 208.803 22.2775C208.803 22.2487 208.774 22.2199 208.774 22.1911C210.098 21.0397 211.278 19.5717 212.775 18.6506C214.3 17.7007 215.97 17.528 217.697 17.528C218.474 17.787 219.136 18.4491 219.136 19.3126Z" fill="#EE6A71"/>
<path d="M218.705 28.8117C217.639 29.3874 216.459 29.7904 215.481 30.51C215.394 30.51 215.279 30.6251 215.308 30.7403C215.625 32.2659 216.287 33.9066 216.977 35.3171C212.401 34.1945 209.062 31.1145 207.191 26.8831C207.191 26.3074 207.133 25.7317 206.989 25.1848C207.421 25.156 207.824 24.9833 208.14 24.6954C209.954 25.962 212.746 27.1997 215.308 27.3724C216.114 28.3223 217.496 28.5814 218.705 28.8117Z" fill="#EE6A71"/>
<path d="M210.184 34.0505C211.623 33.4172 211.998 35.8352 210.616 35.9503C210.127 35.9791 209.609 35.6049 209.551 35.1156C209.465 34.6262 209.781 34.2808 210.184 34.0505C210.155 34.0505 210.155 34.0505 210.184 34.0505Z" fill="#F8BE66"/>
<path d="M210.069 18.8233C209.407 19.6005 208.831 20.4928 208.4 21.414C208.256 21.27 208.054 21.2125 207.795 21.2125C207.795 21.2125 207.795 21.2125 207.766 21.2125C207.162 20.9822 206.442 20.8958 205.838 21.0685C205.838 21.0398 205.838 21.0398 205.809 21.011C205.492 20.4065 205.118 19.8596 204.715 19.3127L204.744 19.2839C204.888 18.4779 205.032 17.6431 204.917 16.8084C204.859 16.3766 204.715 16.0024 204.542 15.6282C204.255 15.0813 203.132 14.1026 204.888 14.2177C205.78 14.2753 207.248 15.5994 207.853 16.1175C208.716 16.8947 209.58 17.7583 210.069 18.8233Z" fill="#936037"/>
<path d="M208.803 32.5825C209.004 32.8128 208.918 33.187 208.687 33.3309C208.457 33.4749 208.083 33.3597 207.968 33.1295C207.853 32.928 207.91 32.6689 208.054 32.4962C208.313 32.4386 208.572 32.3235 208.803 32.5825Z" fill="#F8BE66"/>
<path d="M207.91 34.8278C207.997 34.9717 207.91 35.1732 207.738 35.2308C207.565 35.2883 207.363 35.1156 207.363 34.9429C207.363 34.8853 207.392 34.8278 207.45 34.7702C207.478 34.7702 207.507 34.799 207.536 34.7702C207.68 34.7414 207.824 34.7126 207.91 34.8278Z" fill="#F8BE66"/>
<path d="M207.766 21.6155C208.831 21.7306 208.227 24.0046 207.795 24.4076C207.277 24.897 206.241 24.8106 205.665 24.4652C205.032 24.0622 204.974 22.882 205.204 22.22C205.579 21.1549 206.672 21.3852 207.565 21.4716C207.622 21.5291 207.68 21.5867 207.766 21.6155Z" fill="#EE6A71"/>
<path d="M206.73 25.1847C206.644 27.9193 206.385 30.3948 204.715 32.6976C203.247 34.7413 201.29 35.7488 199.073 36.7563C199.073 36.7275 199.016 36.6987 198.987 36.7275C199.275 36.6411 199.332 33.3884 199.275 32.9854C199.275 32.9567 199.246 32.8991 199.217 32.8703C199.217 32.8127 199.217 32.7552 199.16 32.7264C198.641 32.4097 198.066 32.1507 197.548 31.8341C197.087 31.5462 196.627 31.2008 196.166 30.9129C198.037 30.1357 199.908 28.6965 200.858 26.883C202.614 26.624 204.312 25.9619 205.348 24.753C205.464 24.8393 205.607 24.9257 205.78 24.9832C206.097 25.0984 206.442 25.1847 206.73 25.1847Z" fill="#EE6A71"/>
<path d="M205.406 21.27C205.348 21.3276 205.291 21.3852 205.233 21.4428C203.967 19.5142 201.837 18.1325 199.62 17.5568C198.555 17.2689 197.116 17.125 196.051 17.5856L195.878 17.2402C197.087 16.6645 198.498 16.463 199.879 16.7508C202.355 17.2114 204.255 19.0824 205.406 21.27Z" fill="#EE6A71"/>
<path d="M205.089 21.5867C204.974 21.7306 204.888 21.9033 204.83 22.1048C204.83 22.1336 204.83 22.1624 204.801 22.1912C204.773 22.1624 204.744 22.1336 204.658 22.1336C202.959 22.0472 201.261 22.1912 199.563 21.9033C198.267 21.673 195.043 20.9246 195.13 19.1687C196.224 17.0386 199.073 17.6719 200.915 18.4203C202.614 19.0824 203.909 20.2338 205.089 21.5867Z" fill="#EE6A71"/>
<path d="M204.686 22.4502C204.715 22.4502 204.744 22.4502 204.744 22.4214C204.6 23.141 204.686 23.9758 205.147 24.5227C201.549 27.8905 191.244 26.9406 193.23 20.2625C193.662 18.8521 194.64 17.8158 195.878 17.2113L196.051 17.5568C195.418 17.8158 194.928 18.3052 194.755 19.1111C194.755 19.1399 194.755 19.1975 194.755 19.2263C194.583 20.3777 196.281 21.27 197.202 21.6442C199.476 22.5941 202.268 22.7093 204.686 22.4502Z" fill="#EE6A71"/>
<path d="M194.554 41.0453C194.813 41.1893 194.784 41.5059 194.554 41.6498C194.151 41.9664 193.834 41.4771 193.892 41.1029C193.921 41.1029 193.921 41.1029 193.95 41.1029C194.18 41.0453 194.324 40.9014 194.554 41.0453Z" fill="#F8BE66"/>
<path d="M194.41 36.9866C194.899 37.5623 194.669 38.2531 194.007 38.5122C193.489 38.7137 192.884 38.541 192.625 38.0516C192.453 37.7062 192.51 37.332 192.712 37.0154C192.769 37.0442 192.827 37.0154 192.884 36.9578C193.287 36.3821 193.978 36.4972 194.41 36.9866Z" fill="#F8BE66"/>
<path d="M192.597 33.9929C192.856 34.1081 192.942 34.4823 192.769 34.7413C192.625 34.9716 192.251 35.0004 192.05 34.8277C191.819 34.6262 191.848 34.252 192.05 34.0505C192.079 34.0217 192.136 33.9929 192.194 33.9929C192.309 33.9353 192.453 33.9353 192.597 33.9929Z" fill="#F8BE66"/>
<path d="M191.359 40.2105C191.675 40.3545 191.848 40.815 191.647 41.1317C191.445 41.4771 190.927 41.5346 190.582 41.3619C190.294 41.1892 190.207 40.815 190.323 40.5272H190.351C190.639 40.2681 190.956 40.009 191.359 40.2105Z" fill="#F8BE66"/>
<path d="M190.179 38.0228C190.351 38.1092 190.38 38.3107 190.236 38.4258C190.092 38.541 189.891 38.5697 189.804 38.3682C189.747 38.2531 189.747 38.138 189.804 38.0516C189.862 38.0228 189.92 37.994 189.977 37.994C190.035 37.9653 190.121 37.994 190.179 38.0228Z" fill="#F8BE66"/>
<path d="M217.812 26.768C221.525 30.3661 228.146 35.8064 224.145 41.5059C223.713 42.1103 223.195 42.6573 222.591 43.1178C222.648 43.1466 222.677 43.2042 222.677 43.2905C222.562 44.298 222.303 45.2479 221.871 46.1402C221.525 48.9036 220.029 51.5806 219.223 54.2576C218.273 57.3951 217.668 60.5903 217.294 63.843C217.294 63.8718 217.294 63.8718 217.265 63.9005C217.294 63.9869 217.265 64.0732 217.15 64.1308C213.437 65.8867 209.321 66.7215 205.233 66.6639C201.923 66.6063 197.432 66.2033 195.101 63.5263C195.043 63.4975 195.015 63.4688 194.986 63.4112C194.986 63.4112 194.986 63.4112 194.986 63.3824C194.986 63.3536 194.986 63.3536 194.986 63.3248C194.18 60.2736 193.748 57.1361 192.827 54.1137C191.992 51.3791 190.783 48.7884 189.804 46.1115C189.229 45.2191 188.855 44.2404 188.883 43.1754C187.703 41.9664 187.214 40.1818 187.358 38.4547C187.559 35.9216 189.027 33.7051 190.812 32.0068C192.884 30.0207 195.648 28.8405 197.519 26.6529C197.087 26.5953 196.655 26.5089 196.281 26.3938C193.575 25.6454 191.762 23.2562 192.338 20.4353C192.913 17.5568 195.59 15.8297 198.44 15.8873C200.772 15.9161 202.758 17.125 204.197 18.8233C204.283 17.6432 204.341 16.5206 203.736 15.4267C203.506 15.0237 202.815 14.4193 202.902 13.8723C202.959 13.3254 203.621 13.2966 204.053 13.3542C205.262 13.5269 206.586 14.5632 207.507 15.2828C208.543 16.0888 209.551 17.0099 210.069 18.2189C211.364 16.8372 213.063 15.8585 215.049 15.6858C217.899 15.4267 220.748 17.125 221.353 20.0323C221.842 22.4215 220.173 25.8469 217.812 26.768ZM224.087 40.5848C226.62 36.0367 222.475 31.8341 219.108 28.6678C217.956 29.4162 216.661 29.848 215.423 30.4525C216.114 31.8629 216.632 33.5612 217.006 35.0868V35.1156C217.15 35.202 217.064 35.4323 216.862 35.4035C212.545 34.6838 208.486 31.4887 206.874 27.3725C206.529 31.719 202.93 36.2094 198.728 36.8715C198.584 36.9003 198.469 36.7276 198.526 36.6124C198.498 36.6124 198.498 36.5836 198.469 36.5836C198.181 36.1519 198.411 35.2883 198.469 34.799C198.526 34.0794 198.498 33.3309 198.67 32.6401C197.576 32.2947 196.252 31.6614 195.475 30.8267C195.418 30.7691 195.418 30.7115 195.418 30.654C195.36 30.5676 195.36 30.4525 195.446 30.3949C197.346 29.4738 198.67 28.2072 199.994 26.6241C199.275 26.6816 198.555 26.6816 197.864 26.6241C196.483 28.8405 193.95 29.9343 191.992 31.5463C189.661 33.4749 187.674 36.1519 187.79 39.3182C187.847 40.959 188.596 42.5709 190.035 43.4345C191.503 44.3268 192.625 43.8087 194.065 43.2617C195.821 42.5997 196.886 43.4632 198.095 44.6722C200.052 46.572 203.017 48.5006 205.78 47.0614C206.96 46.4569 207.594 45.2767 208.543 44.4131C209.177 43.8662 209.925 43.4345 210.702 43.2042C212.89 42.5421 215.078 43.4057 217.237 43.7223C220.086 44.1829 222.706 43.089 224.087 40.5848ZM216.056 26.5665C218.964 26.4801 221.353 23.1411 220.921 20.2914C220.432 17.0675 216.977 15.5707 214.041 16.3191C211.48 16.9811 209.637 19.0536 208.515 21.3564C208.486 21.4428 208.428 21.4716 208.371 21.4716C208.4 21.5003 208.4 21.5291 208.4 21.5579C210.789 18.9961 213.725 16.0312 217.582 16.9523C217.611 16.9523 217.64 16.9811 217.668 17.0099C219.539 17.3553 219.654 19.8596 218.129 21.0398C217.035 21.9033 215.567 22.1048 214.214 22.2488C212.343 22.4502 210.386 22.623 208.543 22.1336C208.601 22.7093 208.486 23.3714 208.313 23.7168C208.256 23.8607 208.169 24.0046 208.083 24.1198C210.53 25.3575 213.235 26.6528 216.056 26.5665ZM222.159 43.3769C221.238 43.9526 220.201 44.3268 219.108 44.4131C215.884 44.6146 212.66 42.427 209.609 44.3844C208.371 45.1903 207.68 46.6008 206.442 47.378C205.607 47.8961 204.6 48.1264 203.592 48.0976C201.088 48.0401 199.188 46.4569 197.49 44.8161C196.367 43.7223 195.504 43.2617 193.95 43.9526C193.547 44.1253 193.144 44.3556 192.712 44.4707C191.762 44.701 190.812 44.5283 189.977 44.0677C189.689 43.9238 189.43 43.7223 189.2 43.5208C189.661 44.9313 190.179 46.169 191.301 47.2916C192.51 48.5006 194.065 49.3066 195.705 49.8535C198.987 50.9185 202.614 51.2064 206.039 51.2927C207.91 51.3503 209.781 51.2927 211.623 51.1776C213.351 51.0625 215.164 50.9761 216.776 50.3716C219.683 49.2202 221.756 46.4281 222.159 43.3769ZM221.122 47.4068C220.345 48.587 219.28 49.5656 218.042 50.2853C218.042 50.3141 218.042 50.3716 218.014 50.4292C215.711 55.0348 214.56 59.6979 214.099 64.7929C215.02 64.505 215.912 64.1596 216.805 63.7854C217.409 58.0284 219.223 52.7608 221.122 47.4068ZM217.467 20.9822C218.129 20.5792 218.848 19.8884 218.848 19.0248C218.848 18.1613 218.186 17.4992 217.409 17.2402C215.653 17.2402 214.013 17.4129 212.487 18.3628C210.99 19.2839 209.81 20.7232 208.486 21.9033C208.486 21.9321 208.515 21.9609 208.515 21.9897C210.558 22.1048 212.573 22.076 214.617 21.817C215.596 21.6731 216.603 21.5003 217.467 20.9822ZM218.474 28.0633C218.129 27.7179 217.783 27.4013 217.438 27.0846C217.38 27.0271 217.352 26.9407 217.38 26.8831C216.862 27.0271 216.287 27.0846 215.711 27.1134C216.488 27.6891 217.496 27.8906 218.474 28.0633ZM215.222 30.251C216.2 29.5026 217.38 29.1283 218.445 28.5526C217.237 28.2936 215.855 28.0633 215.049 27.0846C212.487 26.9119 209.695 25.6742 207.881 24.4076C207.565 24.6955 207.162 24.8394 206.73 24.897C206.874 25.4439 206.932 26.0196 206.932 26.5953C208.803 30.8554 212.142 33.9066 216.718 35.0293C216.056 33.6188 215.394 31.9781 215.049 30.4525C215.02 30.3373 215.106 30.251 215.222 30.251ZM217.496 50.5443C216.143 51.1488 214.703 51.3503 213.207 51.4942C212.832 51.523 212.429 51.5518 212.055 51.5806C210.904 56.2725 210.616 60.9069 210.357 65.6852C211.537 65.4549 212.717 65.1671 213.869 64.8217C213.782 59.9282 215.164 54.8621 217.496 50.5443ZM210.155 65.7716C209.724 61.1084 210.472 56.1574 211.623 51.6669C209.896 51.7821 208.14 51.8109 206.385 51.7533C206.212 56.5604 206.241 61.3675 206.126 66.1745C207.478 66.117 208.831 65.9731 210.155 65.7716ZM209.781 18.5355C209.321 17.4417 208.428 16.6069 207.536 15.8585C206.932 15.3404 205.463 14.0451 204.571 13.9587C202.815 13.8148 203.967 14.7935 204.226 15.3692C204.398 15.7434 204.542 16.1176 204.6 16.5493C204.715 17.3553 204.571 18.2189 204.427 19.0248C204.427 19.0536 204.427 19.0536 204.398 19.0536C204.83 19.5718 205.176 20.1475 205.492 20.7519C205.492 20.7807 205.492 20.7807 205.492 20.8095C206.097 20.608 206.816 20.7231 207.421 20.9534C207.421 20.9534 207.421 20.9534 207.45 20.9534C207.709 20.9534 207.91 21.011 208.054 21.1549C208.543 20.205 209.119 19.3127 209.781 18.5355ZM207.536 24.091C207.968 23.688 208.543 21.414 207.507 21.2989C207.421 21.2989 207.363 21.2413 207.335 21.1549C206.471 21.0686 205.377 20.8383 204.974 21.9033C204.744 22.5654 204.801 23.7456 205.435 24.1486C205.982 24.5228 207.018 24.5803 207.536 24.091ZM204.456 32.4098C206.097 30.107 206.385 27.6315 206.471 24.897C206.154 24.897 205.838 24.8394 205.521 24.6955C205.348 24.6379 205.233 24.5515 205.089 24.4652C204.053 25.6742 202.355 26.365 200.599 26.5953C199.649 28.4087 197.807 29.848 195.907 30.6252C196.396 30.8842 196.828 31.2584 197.289 31.5463C197.807 31.8629 198.382 32.1508 198.901 32.4386C198.958 32.4674 198.958 32.525 198.958 32.5825C198.987 32.6113 199.016 32.6401 199.016 32.6977C199.073 33.1007 199.016 36.3534 198.728 36.4397C198.757 36.4397 198.785 36.4685 198.814 36.4685C201.031 35.461 202.988 34.4536 204.456 32.4098ZM205.723 66.1458C205.78 66.1458 205.866 66.1458 205.924 66.1458C205.607 61.3675 205.751 56.5028 205.982 51.7245C203.88 51.6382 201.635 51.523 199.476 51.1776C201.434 55.7256 202.47 60.9933 202.211 65.9443C203.391 66.0882 204.571 66.1458 205.723 66.1458ZM205.147 21.011C205.118 20.9822 205.118 20.9822 205.147 21.011C203.967 18.8233 202.096 16.9523 199.591 16.4342C198.238 16.1751 196.799 16.3478 195.59 16.9235C194.352 17.528 193.374 18.5643 192.942 19.9747C190.927 26.6241 201.232 27.6027 204.859 24.2349C204.398 23.688 204.312 22.882 204.456 22.1336C204.427 22.1336 204.427 22.1336 204.398 22.1624C201.981 22.4502 199.217 22.3063 196.943 21.3852C196.022 21.011 194.324 20.1187 194.496 18.9673C194.468 18.9385 194.468 18.9097 194.496 18.8521C194.698 18.0462 195.187 17.5856 195.792 17.2977C196.857 16.8372 198.325 17.0099 199.361 17.269C201.578 17.8447 203.708 19.1976 204.974 21.1549C205.003 21.0974 205.06 21.0398 205.147 21.011ZM204.542 21.817C204.6 21.6155 204.686 21.4428 204.801 21.2989C203.592 19.946 202.297 18.7946 200.628 18.1037C198.785 17.3553 195.936 16.722 194.842 18.8521C194.784 20.608 197.979 21.3852 199.275 21.5867C200.973 21.8745 202.671 21.7306 204.37 21.817C204.427 21.817 204.485 21.8458 204.514 21.8745C204.514 21.8745 204.542 21.8458 204.542 21.817ZM201.923 65.8867C201.75 60.6766 200.858 55.9271 198.987 51.0625C197.634 50.8322 196.281 50.4868 195.015 49.9974C196.857 54.8333 198.296 59.957 198.785 65.1383C199.822 65.5125 200.858 65.7428 201.923 65.8867ZM198.469 65.0232C197.576 59.8419 196.396 54.8045 194.525 49.8823C194.525 49.8535 194.525 49.8247 194.525 49.8247C194.496 49.8247 194.496 49.8247 194.496 49.7959C193.316 49.2778 191.992 48.4718 190.956 47.4356C191.906 49.5369 192.625 51.8397 193.287 53.9697C194.209 56.9346 195.187 60.1873 195.389 63.2961C196.31 64.0445 197.375 64.6202 198.469 65.0232Z" fill="#252A34"/>
<path d="M223.454 37.0442C223.915 37.3896 224.03 38.1092 223.627 38.541C223.195 38.9728 222.475 38.9727 222.101 38.4834C221.871 38.1956 221.871 37.7926 222.072 37.5047C222.044 37.4759 222.015 37.4184 222.044 37.3896C222.188 36.8139 223.051 36.7563 223.454 37.0442ZM223.397 38.1668C223.569 37.8501 223.425 37.3896 223.08 37.2744C222.85 37.1881 222.677 37.2744 222.504 37.3608C222.188 37.6486 222.13 38.1668 222.533 38.3971C222.85 38.5698 223.224 38.4546 223.397 38.1668Z" fill="#252A34"/>
<path d="M221.583 39.7212C222.044 40.4696 221.756 41.5922 220.95 41.9952C220.144 42.3982 219.05 41.9952 218.733 41.1604C218.532 40.6423 218.676 39.8939 219.108 39.4909C219.108 39.4333 219.108 39.3757 219.165 39.347C219.856 38.7425 221.065 38.9152 221.583 39.7212ZM220.72 41.6497C221.324 41.3619 221.554 40.4984 221.209 39.9514C220.863 39.347 220.115 39.2894 219.539 39.5485C219.165 39.9227 218.906 40.3832 219.05 40.9301C219.252 41.5922 220.115 41.9376 220.72 41.6497Z" fill="#252A34"/>
<path d="M221.209 36.929C221.468 37.3032 221.295 37.7638 220.921 37.9365C220.547 38.138 220.086 37.9941 219.914 37.5911C219.827 37.332 219.885 36.9866 220.115 36.8139L220.144 36.7851C220.432 36.4397 221.007 36.6412 221.209 36.929ZM220.748 37.6486C220.95 37.5335 221.065 37.3032 220.892 37.1017C220.72 36.9002 220.518 36.9578 220.317 37.0154C220.288 37.0154 220.288 37.0154 220.259 37.0154C220.201 37.1593 220.173 37.3032 220.23 37.4471C220.317 37.6774 220.547 37.735 220.748 37.6486Z" fill="#252A34"/>
<path d="M220.23 45.9387C220.345 45.8523 220.489 46.0538 220.374 46.1402C220.144 46.3417 219.741 46.428 219.539 46.1402C219.395 45.9387 219.453 45.622 219.712 45.5357C219.798 45.5069 219.856 45.6508 219.77 45.7084C219.654 45.766 219.654 45.9387 219.741 46.025C219.885 46.1114 220.115 45.9963 220.23 45.9387Z" fill="#252A34"/>
<path d="M219.338 47.6946C219.367 47.8961 219.194 48.0688 219.021 48.0976C218.82 48.1264 218.647 47.9825 218.589 47.8098C218.561 47.6946 218.733 47.6659 218.762 47.7522C218.791 47.8386 218.906 47.8961 218.992 47.8673C219.079 47.8386 219.108 47.7522 219.136 47.6659C219.165 47.5507 219.309 47.6083 219.338 47.6946Z" fill="#252A34"/>
<path d="M218.733 46.8022C218.992 46.8598 219.108 47.1476 218.992 47.3779C218.935 47.493 218.82 47.4067 218.82 47.3203C218.849 47.2052 218.762 47.09 218.676 47.0325C218.561 46.9749 218.388 47.09 218.388 47.2052C218.359 47.3203 218.186 47.3491 218.186 47.2052C218.215 46.9461 218.474 46.7158 218.733 46.8022Z" fill="#252A34"/>
<path d="M217.438 27.0846C217.755 27.4012 218.1 27.7179 218.474 28.0633C217.524 27.8618 216.488 27.6891 215.711 27.0846C216.287 27.0846 216.862 26.9982 217.38 26.8543C217.352 26.9407 217.38 27.027 217.438 27.0846Z" fill="#936037"/>
<path d="M211.652 34.3672C211.796 35.1444 211.249 35.9504 210.472 36.0943C209.724 36.2382 208.889 35.6337 208.803 34.8565C208.774 34.3384 209.09 33.7627 209.58 33.5612C209.58 33.5036 209.609 33.4461 209.666 33.4173C210.472 32.8992 211.508 33.4749 211.652 34.3672ZM210.299 35.6625C211.681 35.5474 211.307 33.1294 209.868 33.7627C209.868 33.7627 209.868 33.7627 209.839 33.7627C209.465 33.993 209.148 34.3384 209.206 34.799C209.292 35.3171 209.81 35.6913 210.299 35.6625Z" fill="#252A34"/>
<path d="M210.242 44.9888C210.357 45.0464 210.271 45.2191 210.155 45.1903C209.896 45.1328 209.637 45.1903 209.493 45.4206C209.407 45.507 209.263 45.3918 209.321 45.2767C209.522 44.96 209.896 44.8161 210.242 44.9888Z" fill="#252A34"/>
<path d="M209.666 45.9675C209.868 46.1402 209.896 46.4281 209.781 46.6296C209.724 46.7159 209.58 46.6583 209.609 46.5432C209.724 46.2266 209.378 45.9099 209.09 46.1402C208.975 46.1978 208.86 46.0251 208.946 45.9675C209.148 45.7948 209.465 45.766 209.666 45.9675Z" fill="#252A34"/>
<path d="M208.975 46.4856C209.062 46.3993 209.206 46.5144 209.148 46.6295C209.004 46.8598 208.716 46.9462 208.486 46.8022C208.256 46.6583 208.198 46.3705 208.342 46.1402C208.4 46.0538 208.543 46.1114 208.486 46.1978C208.428 46.3417 208.457 46.5144 208.601 46.6008C208.745 46.6583 208.889 46.6008 208.975 46.4856Z" fill="#252A34"/>
<path d="M208.86 32.0644C209.177 32.4674 209.062 33.1006 208.63 33.3885C208.198 33.6476 207.565 33.5036 207.335 33.0431C207.162 32.6977 207.248 32.2371 207.536 32.0068C207.536 32.0068 207.536 31.978 207.565 31.978C207.853 31.5463 208.572 31.6902 208.86 32.0644ZM208.4 33.0431C208.659 32.8991 208.716 32.4962 208.515 32.2947C208.284 32.0356 208.025 32.1507 207.738 32.2083C207.622 32.381 207.536 32.6401 207.651 32.8416C207.795 33.1006 208.141 33.187 208.4 33.0431Z" fill="#252A34"/>
<path d="M207.968 34.3384C208.198 34.6838 207.997 35.2019 207.594 35.3459C207.162 35.4898 206.701 35.1156 206.73 34.6838C206.73 34.4823 206.845 34.3384 207.018 34.2233C207.075 34.1945 207.133 34.1657 207.191 34.1657C207.363 33.9642 207.795 34.1081 207.968 34.3384ZM207.45 34.9429C207.594 34.8853 207.709 34.6838 207.622 34.5399C207.536 34.4248 207.392 34.4535 207.277 34.4823C207.248 34.4823 207.219 34.4823 207.191 34.4823C207.133 34.5399 207.133 34.5975 207.104 34.655C207.075 34.8277 207.277 35.0004 207.45 34.9429Z" fill="#252A34"/>
<path d="M197.001 47.4067C197.029 47.7233 196.626 47.9248 196.367 47.8097C196.051 47.6658 196.022 47.234 196.195 46.9749C196.252 46.8886 196.396 46.9749 196.339 47.0613C196.281 47.2052 196.281 47.493 196.454 47.5506C196.598 47.6082 196.742 47.5218 196.77 47.3779C196.799 47.234 196.972 47.2916 197.001 47.4067Z" fill="#252A34"/>
<path d="M196.281 49.1914C196.31 49.2202 196.31 49.2202 196.339 49.249C196.396 49.249 196.454 49.249 196.511 49.2202C196.627 49.1914 196.742 49.0763 196.77 48.9612C196.828 48.846 197.001 48.8748 196.972 49.0187C196.914 49.3066 196.627 49.5081 196.339 49.4505C196.224 49.4217 196.137 49.3354 196.108 49.2202C196.08 49.1339 196.137 49.0187 196.252 49.0475C196.281 49.0763 196.31 49.1339 196.281 49.1914C196.281 49.1626 196.252 49.1914 196.281 49.1914Z" fill="#252A34"/>
<path d="M195.475 48.0113C195.792 47.8961 196.252 48.184 196.166 48.5582C196.137 48.6733 195.965 48.6446 195.965 48.5294C195.965 48.3567 195.821 48.2128 195.648 48.2128C195.562 48.2128 195.475 48.2416 195.446 48.2991C195.418 48.3567 195.389 48.5006 195.475 48.5006C195.533 48.5006 195.562 48.6158 195.504 48.6446C195.36 48.6733 195.245 48.5582 195.245 48.3855C195.216 48.184 195.302 48.0688 195.475 48.0113Z" fill="#252A34"/>
<path d="M194.583 40.5846C194.928 40.9301 194.784 41.5058 194.353 41.736C193.892 41.9951 193.403 41.7072 193.287 41.2179C193.172 40.7861 193.46 40.3544 193.892 40.3831C194.151 40.3544 194.439 40.4407 194.583 40.5846ZM194.266 41.3618C194.468 41.1891 194.496 40.8725 194.266 40.7573C194.036 40.6134 193.892 40.7573 193.69 40.8437C193.662 40.8437 193.662 40.8437 193.633 40.8437C193.547 41.1891 193.863 41.7072 194.266 41.3618Z" fill="#252A34"/>
<path d="M192.424 36.3245C193.345 35.0004 195.964 37.1305 194.209 38.3971C193.518 38.8864 192.539 38.7713 192.079 38.0516C191.676 37.4759 191.848 36.67 192.424 36.3245ZM193.719 38.2244C194.381 37.9653 194.612 37.2745 194.122 36.6988C193.69 36.2094 193 36.0943 192.568 36.67C192.51 36.7275 192.453 36.7275 192.395 36.7275C192.194 37.0442 192.136 37.4184 192.309 37.7638C192.597 38.2531 193.201 38.4258 193.719 38.2244Z" fill="#252A34"/>
<path d="M192.827 44.7873C193.287 44.7585 193.662 45.3342 193.374 45.7372C193.316 45.8235 193.144 45.7372 193.23 45.6508C193.374 45.363 193.144 44.96 192.827 44.9888C192.712 44.96 192.712 44.7873 192.827 44.7873Z" fill="#252A34"/>
<path d="M192.568 33.5036C192.942 33.7627 193.028 34.3671 192.741 34.7413C192.424 35.1155 191.819 35.1443 191.503 34.7701C191.273 34.5111 191.244 34.1369 191.416 33.8778C191.388 33.849 191.388 33.8202 191.388 33.7627C191.445 33.5324 191.704 33.4172 191.935 33.3597C192.136 33.3309 192.366 33.3597 192.568 33.5036ZM192.481 34.4535C192.654 34.2232 192.568 33.849 192.309 33.7051C192.194 33.6475 192.021 33.6475 191.906 33.6763C191.848 33.6763 191.819 33.7051 191.762 33.7339C191.589 33.9354 191.56 34.3096 191.762 34.5111C191.963 34.7126 192.309 34.6838 192.481 34.4535Z" fill="#252A34"/>
<path d="M192.654 45.3918C192.741 45.3342 192.827 45.4493 192.741 45.5069C192.338 45.8811 191.704 45.5933 191.704 45.0463C191.704 44.9312 191.877 44.9312 191.877 45.0463C191.906 45.4781 192.338 45.622 192.654 45.3918Z" fill="#252A34"/>
<path d="M191.33 39.6924C191.791 40.009 191.906 40.671 191.56 41.1028C191.186 41.5634 190.38 41.6209 189.977 41.1892C189.689 40.8725 189.689 40.4695 189.891 40.1241C189.891 40.0953 189.891 40.0666 189.891 40.0666C190.092 39.5196 190.87 39.3757 191.33 39.6924ZM191.359 40.815C191.56 40.4983 191.388 40.0666 191.071 39.8939C190.697 39.7211 190.351 39.9514 190.064 40.1817H190.035C189.92 40.4696 190.006 40.8438 190.294 41.0165C190.639 41.2467 191.129 41.1604 191.359 40.815Z" fill="#252A34"/>
<path d="M190.927 45.0176C190.985 44.9313 191.129 44.9888 191.1 45.104C191.042 45.3343 190.812 45.507 190.553 45.5645C190.438 45.5933 190.38 45.4206 190.495 45.3918C190.726 45.3055 190.841 45.1903 190.927 45.0176Z" fill="#252A34"/>
<path d="M190.15 37.5335C190.438 37.7638 190.409 38.1668 190.121 38.3971C189.833 38.5986 189.43 38.5698 189.286 38.2244C189.2 38.0229 189.229 37.8214 189.344 37.6487C189.373 37.3032 189.948 37.3608 190.15 37.5335ZM189.948 38.138C190.092 38.0229 190.064 37.8214 189.891 37.735C189.833 37.7062 189.747 37.6774 189.661 37.6774C189.603 37.6774 189.545 37.735 189.488 37.735C189.459 37.8502 189.459 37.9653 189.488 38.0516C189.574 38.2531 189.804 38.2531 189.948 38.138Z" fill="#252A34"/>
<circle cx="35" cy="304" r="35" fill="white"/>
<circle cx="35" cy="304" r="34.75" stroke="#FF2E63" stroke-opacity="0.2" stroke-width="0.5"/>
<circle cx="34.825" cy="303.825" r="30.625" fill="white"/>
<circle cx="34.825" cy="303.825" r="30.375" stroke="#FF2E63" stroke-opacity="0.2" stroke-width="0.5"/>
<path d="M47.6044 306.811C47.4451 308.541 47.0582 310.248 46.785 311.932C46.3981 314.209 45.9884 316.485 45.6015 318.738C45.2373 320.809 45.3511 323.95 43.166 324.952C42.7108 325.157 42.2101 325.339 41.7094 325.475C42.506 323.04 43.0067 320.468 43.553 317.964C44.0992 315.506 44.3951 313.116 44.3951 310.59C44.3951 310.521 44.3724 310.476 44.3269 310.453C45.2145 309.952 46.0112 309.315 46.6712 308.45C47.0582 307.949 47.3768 307.38 47.6044 306.811Z" fill="#F8BE66"/>
<path d="M46.4436 283.914C46.4209 285.143 46.785 286.418 47.6044 287.237C45.9429 287.487 44.3496 289.627 44.9642 291.243C43.2799 290.514 41.0038 291.63 40.7079 293.496C40.5258 293.246 40.2754 293.041 40.0706 292.859C39.843 292.677 39.5471 292.449 39.2512 292.358C39.5926 291.789 39.8202 291.129 39.8202 290.355C39.843 290.355 39.8657 290.378 39.8885 290.355C42.7564 289.672 45.3739 286.827 46.4436 283.914Z" fill="#66C7C2"/>
<path d="M46.0567 300.666C48.3328 303.056 48.0369 306.675 45.6925 308.951C43.1888 311.409 39.4105 311.637 36.1102 311.955C32.7643 312.274 29.4185 312.069 26.2775 310.794C22.9088 309.429 22.3171 305.901 23.7282 302.919C23.751 303.556 23.9103 304.217 24.2062 304.808C25.3215 307.13 27.8252 308.268 30.2834 308.496C35.6777 309.042 42.6881 307.585 45.5104 302.441C45.7836 301.872 45.9884 301.28 46.0567 300.666ZM46.8988 304.057C46.9444 304.148 47.1264 304.08 47.0809 303.989C47.0126 303.784 46.9216 303.556 46.6712 303.534C46.4891 303.511 46.3071 303.625 46.3071 303.83C46.3071 303.943 46.4891 303.943 46.5119 303.83C46.5119 303.761 46.6485 303.761 46.694 303.784C46.8078 303.83 46.8533 303.966 46.8988 304.057ZM46.5574 303.01C46.6485 303.079 46.7395 302.942 46.6712 302.851C46.5574 302.692 46.3753 302.578 46.1705 302.578C46.0112 302.578 45.8518 302.669 45.7836 302.805C45.738 302.896 45.8974 302.987 45.9429 302.896C46.1477 302.714 46.3753 302.896 46.5574 303.01ZM45.9201 303.352C45.9656 303.306 45.9201 303.192 45.8291 303.215C45.6925 303.261 45.5332 303.192 45.6015 303.033C45.647 302.896 45.4194 302.828 45.3739 302.965C45.2601 303.306 45.6697 303.625 45.9201 303.352ZM42.3467 310.225C42.4605 310.157 42.3922 309.952 42.2556 309.998C42.1873 310.021 42.0735 310.021 42.028 309.93C41.9825 309.839 42.0735 309.747 42.1646 309.725C42.3011 309.702 42.2556 309.497 42.1418 309.52C41.8914 309.52 41.7093 309.77 41.7776 310.021C41.8687 310.225 42.1418 310.339 42.3467 310.225ZM41.072 310.681C41.2769 310.658 41.4135 310.499 41.3907 310.294C41.3907 310.18 41.2086 310.157 41.1859 310.271C41.1631 310.339 41.1176 310.43 41.0493 310.453C40.9582 310.476 40.89 310.385 40.8672 310.316C40.8444 310.18 40.6396 310.248 40.6623 310.385C40.7079 310.567 40.89 310.703 41.072 310.681ZM41.1403 309.861C41.1858 309.975 41.3452 309.93 41.3224 309.816C41.2769 309.611 41.072 309.474 40.8672 309.497C40.6623 309.52 40.5258 309.702 40.5258 309.907C40.5258 310.021 40.6851 309.998 40.6851 309.907C40.7079 309.634 41.0493 309.611 41.1403 309.861ZM29.9875 309.588C30.1923 309.11 29.6916 308.655 29.2364 308.86C29.1453 308.905 29.2136 309.065 29.3047 309.019C29.6233 308.905 29.8964 309.178 29.8054 309.497C29.7826 309.611 29.942 309.702 29.9875 309.588ZM29.2591 309.383C29.3274 309.292 29.2364 309.156 29.1226 309.224C28.986 309.315 28.7356 309.224 28.8267 309.019C28.8722 308.883 28.7129 308.792 28.6446 308.905C28.5535 309.087 28.5763 309.315 28.7356 309.429C28.895 309.543 29.1453 309.52 29.2591 309.383ZM24.5476 306.379C24.6614 306.379 24.6842 306.197 24.5704 306.174C24.3883 306.128 24.229 305.878 24.32 305.696C24.3883 305.559 24.2062 305.446 24.1152 305.582C23.8876 305.901 24.1379 306.379 24.5476 306.379ZM24.0696 307.471C24.2062 307.471 24.2062 307.267 24.0696 307.244C23.9786 307.244 23.8876 307.221 23.7965 307.198C23.7737 307.198 23.7282 307.175 23.6827 307.153C23.6599 307.153 23.66 307.13 23.66 307.13C23.6827 307.039 23.5917 306.925 23.5006 306.993C23.3641 307.084 23.4096 307.244 23.5234 307.335C23.6827 307.449 23.8876 307.471 24.0696 307.471ZM24.0469 305.036C24.0924 304.945 24.0014 304.831 23.9103 304.877C23.8648 304.922 23.7965 304.945 23.7282 304.945C23.6599 304.945 23.6144 304.854 23.6372 304.786C23.6599 304.649 23.4551 304.581 23.4323 304.717C23.3868 304.877 23.4551 305.059 23.6144 305.127C23.751 305.218 23.9558 305.173 24.0469 305.036ZM23.8876 306.106C23.9331 305.878 23.9103 305.582 23.66 305.491C23.5006 305.423 23.273 305.468 23.2503 305.673C23.2275 305.764 23.3641 305.81 23.3868 305.719C23.4096 305.605 23.5689 305.628 23.6144 305.696C23.7055 305.787 23.6827 305.969 23.7055 306.106C23.7055 306.174 23.8648 306.22 23.8876 306.106Z" fill="#CA9E67"/>
<path d="M43.9399 296.66C45.0552 297.457 45.7836 298.777 45.7608 300.165C45.738 301.645 44.8731 302.965 43.8944 304.012C41.8915 306.174 39.0691 307.335 36.2012 307.836C33.3106 308.336 29.7599 308.632 27.0741 307.244C24.2973 305.81 22.7495 301.895 25.4126 299.642C25.4808 300.074 25.6629 300.484 25.9588 300.848C26.8465 301.895 28.3942 302.259 29.6461 302.532C31.2621 302.896 32.8781 302.919 34.5169 302.623C37.5214 302.077 41.0493 301.121 42.9612 298.549C43.3937 298.003 43.7806 297.343 43.9399 296.66Z" fill="#F9CDD0"/>
<path d="M46.2843 283.117C45.7835 284.506 45.169 285.803 44.1675 286.987C42.9384 288.421 41.4362 289.217 39.8429 290.173C39.8202 289.809 39.7519 289.422 39.6153 289.081C39.6153 289.081 39.6153 289.081 39.6381 289.081C40.0705 288.99 40.3892 288.375 40.503 287.965C40.6168 287.578 40.6396 287.169 40.5258 286.782C41.3452 287.055 42.4377 286.577 42.9839 286.008C43.3254 285.666 43.6212 285.188 43.5985 284.688C43.5985 284.437 43.5074 284.028 43.3481 283.732C44.3041 283.982 45.5559 283.8 46.2843 283.117Z" fill="#66C7C2"/>
<path d="M44.031 310.658C43.9854 313.275 43.6668 315.756 43.0978 318.306C42.5515 320.718 41.8687 323.108 41.459 325.521C41.459 325.544 41.459 325.566 41.459 325.566C40.503 325.817 39.5015 325.953 38.5228 326.044C38.6822 321.401 38.5228 316.735 38.5456 312.069C40.4347 311.841 42.3694 311.5 44.031 310.658Z" fill="#F8BE66"/>
<path d="M41.4135 292.927C42.5287 293.496 43.6895 294.657 43.6668 295.977C43.6668 297.161 42.8019 298.322 41.9825 299.118C40.2299 300.802 37.7945 301.463 35.4729 302.009C32.9692 302.601 30.511 302.532 28.0528 301.667C26.5733 301.144 25.5263 300.142 25.8678 298.481C26.1181 297.32 26.801 296.364 27.7342 295.659C27.7569 295.727 27.7569 295.818 27.7797 295.886C28.2349 297.297 30.2379 297.639 31.4897 297.661C33.2423 297.707 35.0404 297.366 36.6337 296.66C37.9766 296.091 39.8202 295.067 40.2299 293.519C40.3892 293.701 40.5713 293.883 40.7534 293.86H40.7761C40.8444 293.86 40.9355 293.838 40.9582 293.747C41.1176 293.473 41.2541 293.2 41.4135 292.927Z" fill="#F9CDD0"/>
<path d="M39.4788 292.904C39.6836 293.018 39.8657 293.155 40.025 293.314C39.6609 294.725 38.0221 295.636 36.793 296.227C35.4273 296.865 33.9023 297.206 32.3774 297.297C30.8751 297.388 27.3927 297.183 28.2349 294.794C28.6218 293.678 29.8964 293.178 30.3972 292.108C30.511 292.222 30.6248 292.335 30.7158 292.472C30.6931 292.563 30.7841 292.677 30.8979 292.608C31.5124 292.29 32.1498 292.176 32.8326 292.29C33.4244 293.382 34.5852 294.088 35.9963 294.065C37.271 294.042 38.3635 293.542 39.0463 292.7C39.1829 292.745 39.3194 292.813 39.4788 292.904Z" fill="#F9CDD0"/>
<path d="M39.4332 290.355C39.4332 292.335 37.931 293.633 35.9964 293.61C34.0844 293.587 32.7188 292.222 32.8326 290.287C32.9464 288.125 34.699 287.214 36.6337 287.1C36.6564 287.1 36.6792 287.1 36.6792 287.1C38.2952 287.374 39.4332 288.625 39.4332 290.355ZM37.2027 287.897C37.2937 287.874 37.3165 287.738 37.2254 287.692C37.0434 287.601 36.8157 287.624 36.6337 287.738C36.4971 287.647 36.3378 287.601 36.1784 287.601C36.0874 287.601 36.0646 287.76 36.1557 287.783C36.2695 287.806 36.3378 287.829 36.4288 287.897C36.3605 287.965 36.2922 288.034 36.2695 288.125C36.224 288.216 36.3605 288.352 36.4288 288.238C36.4743 288.17 36.5426 288.102 36.6109 288.056C36.6564 288.125 36.7019 288.193 36.7475 288.261C36.8157 288.375 36.9978 288.307 36.9751 288.17C36.9523 288.079 36.9295 288.011 36.884 287.943C36.9523 287.92 37.0661 287.92 37.2027 287.897Z" fill="#EE6A71"/>
<path d="M38.2724 326.044C38.2724 326.067 38.2952 326.067 38.2724 326.044C37.7489 326.113 37.2254 326.135 36.7247 326.181C36.224 326.204 35.7005 326.226 35.1997 326.226C35.2908 323.928 35.1087 321.606 35.0176 319.33C34.9494 317.031 34.8583 314.732 34.79 312.433C35.359 312.388 35.9281 312.342 36.5199 312.297C37.0661 312.251 37.6124 312.183 38.1586 312.115C38.2269 316.758 38.0904 321.424 38.2724 326.044Z" fill="#F8BE66"/>
<path d="M34.699 319.33C34.79 321.629 34.7673 323.95 35.0176 326.249C34.0389 326.249 33.0602 326.158 32.1042 326.021C31.8994 323.882 31.4669 321.72 31.1711 319.603C30.8296 317.167 30.511 314.732 30.2606 312.297H30.2834C31.649 312.524 33.0374 312.547 34.4259 312.479C34.5397 314.755 34.608 317.031 34.699 319.33Z" fill="#F8BE66"/>
<path d="M31.7856 288.443C31.9677 288.762 32.2636 289.126 32.6505 289.126C32.5822 289.331 32.514 289.536 32.4684 289.786C29.4868 289.559 26.232 287.419 25.2532 284.483C26.1637 285.166 27.5066 285.507 28.6218 285.234C28.3715 285.917 28.8039 286.873 29.3274 287.282C29.9192 287.738 30.9435 287.829 31.5352 287.328C31.5125 287.692 31.6035 288.102 31.7856 288.443Z" fill="#66C7C2"/>
<path d="M32.6505 291.88C32.0815 291.812 31.4897 291.926 30.9889 292.222C30.4654 290.81 28.508 290.879 27.37 291.516C27.37 290.196 26.2774 289.012 25.0028 288.83C25.4353 287.897 25.5946 286.782 25.4808 285.735C26.1409 286.827 27.1879 287.783 28.1211 288.512C29.3502 289.467 30.8979 290.15 32.4684 289.991C32.4456 290.105 32.4456 290.196 32.4456 290.31C32.3774 290.856 32.4684 291.402 32.6505 291.88Z" fill="#66C7C2"/>
<path d="M30.7613 319.034C31.08 321.333 31.3531 323.723 31.9449 325.976C31.3304 325.862 30.7386 325.726 30.1468 325.566C30.0102 325.521 29.8737 325.475 29.7371 325.43V325.407C28.3259 320.718 26.983 316.143 26.4368 311.273C27.5521 311.728 28.8039 312.001 29.9419 312.206C30.1923 314.482 30.4427 316.758 30.7613 319.034Z" fill="#F8BE66"/>
<path d="M29.5095 325.361C28.4853 324.997 27.5748 324.451 27.1424 323.336C26.7555 322.38 26.5734 321.333 26.3002 320.354C25.7084 318.146 25.1622 315.938 24.6159 313.731C24.2517 312.251 23.9559 310.726 23.5917 309.224C23.9103 309.679 24.32 310.089 24.8208 310.453C25.2077 310.703 25.6174 310.931 26.0499 311.136C26.6189 315.938 27.5521 320.9 29.5095 325.361Z" fill="#F8BE66"/>
<path d="M47.8093 304.672C47.9231 306.902 47.3085 309.156 46.9444 311.363C46.5347 313.708 46.1477 316.052 45.7608 318.397C45.5787 319.466 45.3966 320.536 45.2145 321.606C45.078 322.357 44.9869 323.199 44.5772 323.859C43.8716 324.997 42.506 325.384 41.2769 325.657C37.7717 326.408 34.0617 326.75 30.5565 325.908C29.1908 325.589 27.5976 325.134 26.8237 323.836C25.9588 322.402 25.7539 320.377 25.3443 318.784C24.8435 316.781 24.3428 314.778 23.8648 312.775C23.4779 311.159 23.0454 309.52 22.7723 307.881C22.0894 306.083 22.3626 303.943 23.4551 302.282C23.5234 301.053 24.0924 299.915 25.1622 299.164C25.0484 297.616 26.1409 295.886 27.4838 295.249C27.4383 293.838 29.2364 292.791 29.9875 291.721C29.1681 291.061 28.1894 291.152 27.0968 291.561C27.0968 291.584 27.0968 291.584 27.0968 291.607C27.0741 291.789 26.8009 291.721 26.7782 291.561C26.6871 290.856 26.5733 290.196 26.0498 289.672C25.6174 289.217 25.0711 288.989 24.4793 288.853C24.4338 288.83 24.3883 288.807 24.3883 288.762C24.3655 288.739 24.3655 288.694 24.3655 288.648C24.798 287.123 24.889 285.826 24.6614 284.255C24.6387 284.21 24.6387 284.164 24.6159 284.096C24.5931 283.959 24.7069 283.891 24.798 283.891C24.8208 283.868 24.889 283.846 24.9118 283.891C26.1864 284.642 27.2562 284.756 28.6673 284.597L28.6901 284.574C28.7356 284.528 28.8039 284.551 28.8267 284.597C28.9177 284.642 28.8949 284.824 28.8039 284.87C28.5308 285.598 28.8267 286.463 29.4867 286.85C30.1696 287.26 30.7841 286.941 31.3531 286.554C31.3759 286.554 31.3759 286.531 31.3987 286.531C31.4669 286.463 31.6035 286.486 31.6035 286.6C31.6263 287.055 31.6263 287.533 31.8311 287.965C31.9904 288.307 32.2408 288.42 32.4912 288.625C33.174 287.237 34.6535 286.554 36.3378 286.531C36.3833 286.531 36.4288 286.554 36.4743 286.577C37.7262 286.622 38.7277 287.464 39.2284 288.58C39.3195 288.42 39.4788 288.307 39.5926 288.125C39.7064 287.965 39.7974 287.76 39.8657 287.578C40.0023 287.191 40.0023 286.804 39.9568 286.395C39.9112 286.304 39.9795 286.144 40.0933 286.144C40.5258 286.122 40.8899 286.213 41.3224 286.122C41.7321 286.008 42.119 285.803 42.4149 285.484C42.8474 285.052 42.984 284.597 42.8474 284.005C42.7791 283.777 42.6881 283.595 42.7336 283.368C42.6653 283.254 42.7108 283.072 42.8929 283.094C43.5985 283.14 44.3041 283.276 44.9869 283.003C45.647 282.753 46.1022 282.275 46.3981 281.638C46.4209 281.592 46.4891 281.592 46.5347 281.615C46.5802 281.615 46.6029 281.66 46.6257 281.706C46.6712 281.706 46.7395 281.752 46.7167 281.82C46.5347 282.753 46.4664 283.709 46.6712 284.642C46.8533 285.507 47.3085 286.19 47.6955 286.964C47.7182 286.987 47.7182 287.009 47.7182 287.032C47.7865 287.078 47.8093 287.169 47.7182 287.191C46.9899 287.533 46.2843 287.874 45.738 288.489C45.0097 289.308 44.9869 290.173 45.1007 291.22C45.1007 291.311 45.0552 291.357 44.9869 291.379C44.9642 291.425 44.9186 291.448 44.8503 291.425C43.2798 290.97 42.0963 291.357 41.3224 292.426C42.3466 292.95 43.3254 293.906 43.644 295.044C43.7351 295.408 43.7578 295.749 43.7123 296.114C45.1007 297.024 45.8063 298.481 45.7835 299.983C45.8063 299.983 45.8291 300.006 45.8518 300.029C47.172 301.303 47.7865 302.965 47.7182 304.603C47.8093 304.626 47.8093 304.649 47.8093 304.672ZM46.5574 311.705C46.8533 310.021 47.2175 308.291 47.3768 306.584C47.1492 307.175 46.8305 307.722 46.4436 308.245C45.7835 309.11 44.9869 309.747 44.0992 310.248C44.1448 310.271 44.1675 310.316 44.1675 310.385C44.1675 312.888 43.8716 315.301 43.3254 317.759C42.7563 320.263 42.2556 322.812 41.4817 325.27C41.9825 325.134 42.4832 324.952 42.9384 324.747C45.1007 323.723 45.0097 320.582 45.3739 318.533C45.7608 316.257 46.1705 313.981 46.5574 311.705ZM47.3768 287.009C46.5574 286.167 46.1705 284.915 46.216 283.663C45.1462 286.577 42.5287 289.422 39.6609 290.082C39.6381 290.082 39.6153 290.082 39.5926 290.082C39.5926 290.856 39.3877 291.539 39.0236 292.085C39.3195 292.176 39.6153 292.404 39.8429 292.586C40.0706 292.768 40.2982 292.973 40.4803 293.223C40.7761 291.357 43.0295 290.241 44.7365 290.97C44.122 289.399 45.7153 287.26 47.3768 287.009ZM45.4649 308.723C47.8093 306.447 48.1052 302.828 45.8291 300.438C45.7608 301.053 45.5787 301.645 45.26 302.214C42.4149 307.358 35.4273 308.814 30.033 308.268C27.5748 308.018 25.0711 306.902 23.9558 304.581C23.6599 303.966 23.5006 303.329 23.4779 302.692C22.0894 305.673 22.6812 309.201 26.0498 310.567C29.1908 311.841 32.5595 312.069 35.8826 311.728C39.1601 311.409 42.9612 311.181 45.4649 308.723ZM45.5332 299.937C45.5559 298.549 44.8048 297.252 43.7123 296.432C43.553 297.115 43.1888 297.775 42.7791 298.321C40.8444 300.893 37.3165 301.849 34.312 302.396C32.6733 302.692 31.08 302.669 29.4412 302.305C28.1666 302.031 26.6189 301.645 25.7539 300.62C25.4581 300.256 25.276 299.846 25.2077 299.414C22.5447 301.667 24.0924 305.582 26.8692 307.016C29.555 308.405 33.1057 308.131 35.9964 307.608C38.8642 307.107 41.6866 305.946 43.6895 303.784C44.6455 302.714 45.5332 301.394 45.5332 299.937ZM43.9172 286.759C44.9186 285.598 45.5559 284.301 46.0339 282.89C45.3056 283.55 44.0765 283.732 43.0978 283.504C43.2798 283.777 43.3481 284.187 43.3481 284.46C43.3481 284.961 43.0522 285.439 42.7336 285.78C42.1873 286.349 41.0948 286.827 40.2754 286.554C40.3892 286.941 40.3665 287.351 40.2526 287.738C40.1161 288.125 39.8202 288.739 39.3877 288.853H39.365C39.4788 289.194 39.5698 289.581 39.5926 289.945C41.1858 288.989 42.6881 288.193 43.9172 286.759ZM42.8702 318.078C43.4392 315.529 43.7578 313.025 43.8034 310.43C42.1418 311.272 40.2071 311.637 38.318 311.864C38.2724 316.507 38.4545 321.173 38.2952 325.839C39.2739 325.748 40.2982 325.612 41.2314 325.361C41.2314 325.339 41.2314 325.339 41.2314 325.316C41.6411 322.858 42.3239 320.468 42.8702 318.078ZM43.4392 295.749C43.4392 294.429 42.3011 293.269 41.1858 292.7C41.0265 292.95 40.8899 293.246 40.7761 293.564C40.7534 293.633 40.6623 293.678 40.5941 293.678H40.5713C40.3665 293.678 40.2071 293.496 40.0478 293.337C39.6381 294.862 37.7717 295.886 36.4516 296.478C34.8583 297.183 33.0602 297.525 31.3076 297.479C30.0558 297.457 28.0528 297.115 27.5976 295.704C27.5748 295.636 27.5521 295.545 27.5521 295.476C26.6189 296.182 25.936 297.138 25.6857 298.299C25.3215 299.96 26.3913 300.962 27.8707 301.485C30.3061 302.35 32.7643 302.418 35.2908 301.827C37.5896 301.28 40.025 300.62 41.8004 298.936C42.5743 298.094 43.4392 296.956 43.4392 295.749ZM39.7974 293.086C39.6153 292.95 39.4333 292.813 39.2512 292.677C39.1146 292.586 38.9553 292.54 38.8187 292.426C38.1359 293.291 37.0434 293.792 35.7687 293.792C34.3576 293.792 33.1968 293.109 32.605 292.017C31.9222 291.903 31.2848 292.017 30.6703 292.335C30.5565 292.404 30.4655 292.29 30.4882 292.199C30.3744 292.062 30.2834 291.948 30.1696 291.835C29.6688 292.927 28.3942 293.405 28.0073 294.52C27.1651 296.933 30.6475 297.115 32.1498 297.024C33.652 296.933 35.177 296.592 36.5654 295.954C37.7945 295.408 39.4333 294.475 39.7974 293.086ZM35.7687 293.382C37.7034 293.405 39.2056 292.108 39.2056 290.128C39.2056 288.398 38.0676 287.146 36.4516 286.873C36.4288 286.873 36.4288 286.873 36.4061 286.873C34.4714 286.964 32.7415 287.874 32.605 290.059C32.4912 291.994 33.8568 293.36 35.7687 293.382ZM38.0676 325.839C38.0448 325.839 38.0676 325.839 38.0676 325.839C37.8628 321.196 38.0221 316.53 37.9538 311.887C37.4075 311.955 36.8613 312.001 36.315 312.069C35.746 312.137 35.177 312.183 34.5852 312.206C34.6535 314.504 34.7445 316.803 34.8128 319.102C34.8811 321.401 35.0859 323.723 34.9949 325.999C35.4956 325.999 36.0191 325.976 36.5199 325.953C36.9978 325.93 37.5213 325.885 38.0676 325.839ZM34.79 325.999C34.5169 323.723 34.5397 321.378 34.4714 319.079C34.3803 316.781 34.312 314.504 34.221 312.206C32.8326 312.274 31.4442 312.228 30.0785 312.024H30.0558C30.3061 314.459 30.6248 316.894 30.9662 319.33C31.2621 321.469 31.6945 323.609 31.8994 325.748C32.8553 325.93 33.8341 325.999 34.79 325.999ZM32.4229 288.876C32.036 288.876 31.7173 288.534 31.558 288.193C31.3759 287.851 31.2848 287.442 31.3076 287.055C30.7158 287.556 29.6916 287.464 29.0998 287.009C28.5763 286.6 28.1438 285.621 28.3942 284.961C27.2789 285.234 25.936 284.893 25.0256 284.21C26.0043 287.146 29.2591 289.285 32.2408 289.513C32.2863 289.308 32.3546 289.081 32.4229 288.876ZM30.7386 291.994C31.2393 291.698 31.8311 291.584 32.4001 291.653C32.218 291.175 32.127 290.651 32.1498 290.059C32.1498 289.945 32.1725 289.854 32.1725 289.741C30.602 289.9 29.0543 289.194 27.8252 288.261C26.892 287.533 25.845 286.577 25.1849 285.484C25.2987 286.554 25.1394 287.647 24.7069 288.58C26.0043 288.762 27.0968 289.968 27.0741 291.266C28.2576 290.651 30.2378 290.56 30.7386 291.994ZM31.7173 325.748C31.1255 323.495 30.8524 321.105 30.5337 318.806C30.2151 316.53 29.9647 314.254 29.7143 311.978C28.5763 311.773 27.3244 311.5 26.2092 311.045C26.7554 315.916 28.0983 320.513 29.5095 325.179V325.202C29.6461 325.248 29.7826 325.293 29.9192 325.339C30.4882 325.498 31.1028 325.635 31.7173 325.748ZM26.9148 323.108C27.3472 324.223 28.2576 324.77 29.2819 325.134C27.3244 320.673 26.3912 315.711 25.845 310.908C25.4125 310.703 25.0028 310.476 24.6159 310.225C24.1152 309.884 23.7055 309.452 23.3868 308.996C23.751 310.499 24.0469 312.001 24.4111 313.503C24.9346 315.711 25.5036 317.919 26.0954 320.126C26.3457 321.105 26.5506 322.152 26.9148 323.108Z" fill="#252A34"/>
<path d="M46.8761 303.739C46.8989 303.852 46.7395 303.921 46.694 303.807C46.6485 303.716 46.5802 303.602 46.4892 303.534C46.4436 303.511 46.3071 303.488 46.3071 303.579C46.3071 303.693 46.125 303.693 46.1022 303.579C46.0795 303.397 46.2843 303.261 46.4664 303.283C46.694 303.329 46.8078 303.534 46.8761 303.739Z" fill="#252A34"/>
<path d="M46.4436 302.646C46.5119 302.714 46.4209 302.851 46.3298 302.805C46.1477 302.692 45.9201 302.509 45.7381 302.714C45.6698 302.783 45.5332 302.714 45.5787 302.623C45.647 302.464 45.7836 302.373 45.9657 302.396C46.1478 302.373 46.3298 302.487 46.4436 302.646Z" fill="#252A34"/>
<path d="M45.6242 302.988C45.7153 302.965 45.7608 303.079 45.7153 303.124C45.4649 303.397 45.0552 303.079 45.169 302.737C45.2145 302.601 45.4421 302.646 45.3966 302.805C45.3283 302.965 45.4877 303.033 45.6242 302.988Z" fill="#252A34"/>
<path d="M42.028 309.77C42.1646 309.725 42.2328 309.929 42.119 309.998C41.9142 310.134 41.6183 310.021 41.55 309.793C41.4817 309.543 41.6638 309.315 41.9142 309.292C42.028 309.292 42.0735 309.497 41.937 309.52C41.8459 309.543 41.7549 309.634 41.8004 309.725C41.8459 309.77 41.9597 309.793 42.028 309.77Z" fill="#252A34"/>
<path d="M41.1631 310.066C41.1858 310.271 41.0265 310.43 40.8444 310.453C40.6623 310.476 40.4802 310.317 40.4347 310.134C40.412 309.998 40.6168 309.93 40.6396 310.066C40.6623 310.157 40.7306 310.226 40.8217 310.203C40.9127 310.18 40.9582 310.112 40.9582 310.021C41.0037 309.93 41.1631 309.975 41.1631 310.066Z" fill="#252A34"/>
<path d="M41.0948 309.588C41.1175 309.702 40.9582 309.747 40.9127 309.634C40.8217 309.383 40.4802 309.406 40.4575 309.679C40.4575 309.77 40.2982 309.793 40.2982 309.679C40.2982 309.474 40.4347 309.292 40.6396 309.269C40.8444 309.247 41.0493 309.383 41.0948 309.588Z" fill="#252A34"/>
<path d="M36.9978 287.464C37.0889 287.51 37.0661 287.647 36.9751 287.669C36.8613 287.692 36.7475 287.692 36.6337 287.715C36.6792 287.783 36.7247 287.851 36.7247 287.942C36.7475 288.056 36.5881 288.147 36.4971 288.033C36.4516 287.965 36.406 287.897 36.3605 287.829C36.2922 287.874 36.224 287.942 36.1784 288.011C36.1102 288.102 35.9736 287.988 36.0191 287.897C36.0646 287.829 36.1102 287.738 36.1784 287.669C36.1102 287.624 36.0191 287.578 35.9053 287.555C35.8143 287.533 35.837 287.373 35.9281 287.373C36.0874 287.373 36.2467 287.419 36.3833 287.51C36.5881 287.419 36.793 287.373 36.9978 287.464Z" fill="#252A34"/>
<path d="M29.0088 308.632C29.464 308.405 29.9647 308.883 29.7599 309.361C29.7144 309.474 29.555 309.383 29.5778 309.292C29.6688 308.974 29.3957 308.7 29.0771 308.814C28.986 308.837 28.9177 308.678 29.0088 308.632Z" fill="#252A34"/>
<path d="M28.9177 308.974C29.0315 308.905 29.1226 309.042 29.0543 309.133C28.9177 309.292 28.6901 309.315 28.5308 309.179C28.3715 309.042 28.3487 308.814 28.4397 308.655C28.508 308.541 28.6901 308.632 28.6218 308.769C28.5308 308.974 28.7812 309.088 28.9177 308.974Z" fill="#252A34"/>
<path d="M24.3428 305.946C24.4566 305.969 24.4338 306.151 24.32 306.151C23.9103 306.151 23.6599 305.673 23.8876 305.332C23.9786 305.195 24.1607 305.309 24.0924 305.446C24.0014 305.651 24.1607 305.901 24.3428 305.946Z" fill="#252A34"/>
<path d="M23.842 307.016C23.9786 307.039 23.9786 307.244 23.842 307.244C23.6599 307.244 23.4551 307.221 23.3185 307.13C23.2047 307.039 23.1592 306.88 23.2958 306.788C23.3868 306.72 23.4778 306.834 23.4551 306.925L23.4778 306.948C23.5006 306.971 23.5461 306.971 23.5916 306.993C23.6599 306.993 23.751 306.993 23.842 307.016Z" fill="#252A34"/>
<path d="M23.6599 304.649C23.751 304.581 23.8648 304.717 23.7965 304.808C23.7055 304.968 23.5234 305.013 23.364 304.945C23.2047 304.877 23.1364 304.695 23.182 304.535C23.2047 304.399 23.4096 304.467 23.3868 304.604C23.3868 304.672 23.4096 304.74 23.4778 304.763C23.5461 304.786 23.6144 304.695 23.6599 304.649Z" fill="#252A34"/>
<path d="M23.4323 305.241C23.6599 305.332 23.6827 305.65 23.6599 305.855C23.6372 305.969 23.4778 305.924 23.4778 305.833C23.4551 305.719 23.4778 305.537 23.3868 305.423C23.3413 305.355 23.182 305.332 23.1592 305.446C23.1364 305.537 22.9999 305.491 23.0226 305.4C23.0454 305.241 23.2958 305.172 23.4323 305.241Z" fill="#252A34"/>
<g clip-path="url(#clip0_12_161)">
<path d="M314.953 400.168C323.641 402.878 329.286 409.559 327.56 415.088C325.834 420.617 317.392 422.901 308.701 420.188C305.214 419.152 302.026 417.296 299.403 414.776L262.733 402.826L268.708 385.737L304.224 399.332C307.815 398.75 311.494 399.036 314.953 400.168Z" fill="#FFB6B6"/>
<path d="M236.396 274.782C227.652 273.747 219.601 279.656 217.972 288.309C212.162 319.172 199.823 385.912 201.448 387.537C203.564 389.652 282.543 412.923 282.543 412.923L291.711 393.178L239.528 367.792L250.972 293.975C252.425 284.604 245.813 275.898 236.396 274.782Z" fill="#E6E6E6"/>
<path d="M331.547 432.271C323.069 435.582 314.488 433.892 312.381 428.496C310.275 423.1 315.44 416.043 323.921 412.732C327.291 411.362 330.94 410.82 334.562 411.15L370.661 397.573L376.672 414.649L340.446 426.221C338.006 428.919 334.954 430.994 331.547 432.271Z" fill="#A0616A"/>
<path d="M383.605 285.707C392.259 284.086 400.689 289.441 402.896 297.965C410.766 328.368 427.563 394.128 426.051 395.858C424.082 398.111 346.845 426.637 346.845 426.637L336.371 407.552L386.73 378.717L370.351 305.836C368.272 296.584 374.284 287.453 383.605 285.707Z" fill="#E6E6E6"/>
<path d="M230.202 279.216L234.503 252.334L205.471 240.506L201.17 281.366L230.202 279.216Z" fill="#FFB6B6"/>
<path d="M399.762 283.447L395.461 256.565L424.493 244.737L428.794 285.597L399.762 283.447Z" fill="#A0616A"/>
<path d="M222.865 260.976C239.216 260.976 252.471 247.721 252.471 231.37C252.471 215.019 239.216 201.764 222.865 201.764C206.514 201.764 193.259 215.019 193.259 231.37C193.259 247.721 206.514 260.976 222.865 260.976Z" fill="#FFB6B6"/>
<path d="M220.502 191.567C221.359 192.067 222.507 191.311 222.781 190.357C223.056 189.404 222.736 188.392 222.419 187.452L220.821 182.721C219.688 179.366 218.486 175.893 216.032 173.339C212.329 169.484 206.444 168.503 201.146 169.214C194.342 170.126 187.629 173.81 184.466 179.903C181.302 185.995 182.649 194.496 188.365 198.297C180.218 207.634 177.378 218.041 177.827 230.425C178.275 242.809 191.771 254.206 200.572 262.931C202.537 261.739 204.324 256.156 203.243 254.127C202.162 252.099 203.711 249.749 202.372 247.881C201.034 246.013 199.914 248.987 201.267 247.13C202.121 245.958 198.788 243.261 200.058 242.559C206.197 239.165 208.239 231.513 212.095 225.653C216.745 218.585 224.705 213.798 233.129 213.004C237.77 212.567 242.671 213.359 246.474 216.053C250.278 218.747 252.74 223.561 251.858 228.138C254.143 225.818 255.28 222.419 254.851 219.192C254.422 215.966 252.436 212.982 249.626 211.339C251.335 205.688 249.871 199.186 245.904 194.813C241.937 190.439 225.846 191.184 220.054 192.335" fill="#2F2E41"/>
<path d="M219.603 213.176C211.933 214.004 206.395 220.648 201.718 226.784C199.023 230.32 196.199 234.226 196.267 238.672C196.335 243.167 199.341 247.023 200.777 251.283C203.125 258.246 200.837 266.531 195.248 271.302C200.77 272.35 206.74 268.209 207.693 262.67C208.803 256.221 203.915 249.997 204.494 243.479C205.004 237.737 209.529 233.318 213.376 229.024C217.223 224.731 220.836 219.034 219.066 213.547" fill="#2F2E41"/>
<path d="M233.556 274.708L200.038 265.541L165.484 279.644L150.675 396.704L235.297 399.525V380.643C235.297 380.643 250.105 362.15 247.285 335.353L244.464 308.557L233.556 274.708Z" fill="#E6E6E6"/>
<path d="M249.048 322.308L182.761 318.782L164.779 369.907C164.779 369.907 142.566 400.582 139.04 423.148C135.514 445.714 137.629 477.447 137.629 477.447H243.75L235.297 380.643C235.297 380.643 255.033 337.822 252.746 330.417C250.458 323.013 249.048 322.308 249.048 322.308Z" fill="#252A34"/>
<path d="M198.275 265.893H182.056V325.833H198.275V265.893Z" fill="#252A34"/>
<path d="M248.342 279.292H232.123V328.654H248.342V279.292Z" fill="#252A34"/>
<path d="M394.997 280.35L428.515 271.182L463.069 285.286L477.878 402.345L393.256 405.166V386.284C393.256 386.284 384.6 366.981 392.904 341.347C401.013 316.314 384.089 314.198 384.089 314.198L394.997 280.35Z" fill="#E6E6E6"/>
<path d="M379.505 327.949L445.792 324.423L463.774 375.549C463.774 375.549 474.705 410.455 478.23 433.021C481.756 455.586 490.924 483.088 490.924 483.088H384.803L381.621 390.005L379.505 327.949Z" fill="#252A34"/>
<path d="M446.497 271.535H430.278V331.475H446.497V271.535Z" fill="#252A34"/>
<path d="M396.43 284.933H380.211V334.296H396.43V284.933Z" fill="#252A34"/>
<path d="M406.318 265.09C426.797 265.09 443.398 248.489 443.398 228.01C443.398 207.531 426.797 190.93 406.318 190.93C385.839 190.93 369.238 207.531 369.238 228.01C369.238 248.489 385.839 265.09 406.318 265.09Z" fill="#A0616A"/>
<path d="M442.791 248.125C442.791 248.125 424.851 226.597 417.675 228.391C410.499 230.185 414.984 232.876 414.984 232.876L397.045 213.142C397.045 213.142 382.693 207.761 369.238 224.803C369.238 224.803 361.165 210.452 369.238 202.379C377.311 194.306 380.002 195.203 381.796 190.718C383.59 186.233 396.148 182.645 396.148 182.645C396.148 182.645 395.427 176.189 399.375 179.417C403.323 182.645 413.183 182.645 413.183 182.645C413.183 182.645 413.24 179.057 417.251 182.645C421.263 186.233 425.748 184.439 425.748 184.439C425.748 184.439 425.748 190.647 428.888 190.682C432.027 190.718 437.409 186.233 438.306 189.821C439.203 193.409 445.482 195.203 446.379 205.967C447.276 216.73 442.791 248.125 442.791 248.125Z" fill="#2F2E41"/>
<path d="M305.268 303.469L333.977 357.741L330.042 359.823L301.333 305.551C300.916 304.763 301.218 303.785 302.005 303.368L303.086 302.797C303.874 302.38 304.852 302.681 305.268 303.469Z" fill="#3F3D56"/>
<path d="M353.097 378.252C345.793 376.369 338.152 379.703 334.487 386.296C329.897 394.551 324.654 401.323 326.41 385.183C328.343 367.414 317.919 353.063 326.111 348.73C334.303 344.397 342.762 357.566 356.076 369.49C368.416 380.541 361.3 380.367 353.097 378.252Z" fill="#3F3D56"/>
<path d="M310.821 314.448C319.1 310.668 327.762 311.876 330.167 317.145C332.572 322.415 327.81 329.749 319.527 333.53C316.239 335.086 312.626 335.831 308.991 335.704L273.708 351.279L266.752 334.566L302.273 320.986C304.559 318.156 307.49 315.914 310.821 314.448Z" fill="#FFB6B6"/>
<path d="M168.637 273.505C161.434 278.569 159.383 288.343 163.945 295.874C180.217 322.735 215.57 380.671 217.865 380.796C220.852 380.96 295.199 345.577 295.199 345.577L288.848 324.755L233.044 340.677L192.301 278.069C187.129 270.12 176.394 268.05 168.637 273.505Z" fill="#E6E6E6"/>
<path d="M314.349 397.797L409.72 347.349L421.428 369.481C431.527 388.573 424.226 412.272 405.134 422.371L378.946 436.223C359.855 446.322 336.155 439.021 326.057 419.93L314.349 397.797Z" fill="#FF2E63"/>
<path d="M395.15 431.709C386.871 435.49 378.209 434.284 375.803 429.015C373.398 423.745 378.159 416.41 386.441 412.628C389.729 411.072 393.342 410.326 396.977 410.452L432.258 394.872L439.216 411.585L403.697 425.169C401.411 428 398.48 430.243 395.15 431.709Z" fill="#A0616A"/>
<path d="M466.906 282.539C475.65 281.504 483.701 287.413 485.33 296.066C491.139 326.929 503.479 393.669 501.854 395.294C499.738 397.409 420.758 420.68 420.758 420.68L411.591 400.935L463.774 375.549L452.33 301.732C450.877 292.361 457.489 283.655 466.906 282.539Z" fill="#E6E6E6"/>
</g>
<defs>
<clipPath id="clip0_12_161">
<rect width="365" height="314.088" fill="white" transform="translate(137 169)"/>
</clipPath>
</defs>
</svg>
