<svg width="96" height="48" viewBox="0 0 96 48" fill="none" xmlns="http://www.w3.org/2000/svg">
<path d="M44.784 0.351999C45.968 0.351999 46.9013 0.591999 47.584 1.072C48.2773 1.552 48.624 2.288 48.624 3.28C48.624 3.94133 48.4693 4.50667 48.16 4.976C47.8613 5.43467 47.44 5.792 46.896 6.048C46.352 6.29333 45.7173 6.42667 44.992 6.448L44.704 5.456C45.568 5.46667 46.336 5.60533 47.008 5.872C47.68 6.128 48.2133 6.496 48.608 6.976C49.0027 7.44533 49.2 8.00533 49.2 8.656C49.2 9.264 49.088 9.78133 48.864 10.208C48.64 10.624 48.3413 10.9653 47.968 11.232C47.5947 11.4987 47.1733 11.696 46.704 11.824C46.2347 11.9413 45.744 12 45.232 12H41.6V0.351999H44.784ZM45.088 5.312C45.6427 5.312 46.048 5.152 46.304 4.832C46.5707 4.50133 46.704 4.11733 46.704 3.68C46.704 3.14667 46.5387 2.75733 46.208 2.512C45.8773 2.26667 45.4293 2.144 44.864 2.144H43.472V5.312H45.088ZM45.152 10.272C45.5467 10.272 45.904 10.2187 46.224 10.112C46.544 9.99467 46.7947 9.81867 46.976 9.584C47.168 9.33867 47.264 9.03467 47.264 8.672C47.264 8.26667 47.152 7.952 46.928 7.728C46.7147 7.504 46.4373 7.344 46.096 7.248C45.7547 7.152 45.3973 7.104 45.024 7.104H43.472V10.272H45.152ZM53.4861 12.288C52.8675 12.288 52.3555 12.1013 51.9501 11.728C51.5448 11.344 51.3315 10.8533 51.3101 10.256V5.232H53.1021V9.616C53.1235 9.94667 53.2195 10.2187 53.3901 10.432C53.5608 10.6453 53.8328 10.752 54.2061 10.752C54.5581 10.752 54.8728 10.6453 55.1501 10.432C55.4275 10.208 55.6408 9.904 55.7901 9.52C55.9501 9.136 56.0301 8.704 56.0301 8.224V5.232H57.8221V12H56.2061L56.0621 10.512L56.1101 10.752C55.9715 11.04 55.7741 11.3067 55.5181 11.552C55.2621 11.7867 54.9581 11.968 54.6061 12.096C54.2648 12.224 53.8915 12.288 53.4861 12.288ZM62.3265 12.144C61.8145 12.144 61.3238 12.0533 60.8545 11.872C60.3958 11.6907 60.0065 11.424 59.6865 11.072L60.4545 10.064C60.7532 10.352 61.0465 10.5653 61.3345 10.704C61.6332 10.832 61.9158 10.896 62.1825 10.896C62.3852 10.896 62.5665 10.8747 62.7265 10.832C62.8972 10.7787 63.0305 10.6987 63.1265 10.592C63.2332 10.4853 63.2865 10.3413 63.2865 10.16C63.2865 9.94667 63.2118 9.78133 63.0625 9.664C62.9132 9.536 62.7212 9.43467 62.4865 9.36C62.2518 9.27467 62.0065 9.19467 61.7505 9.12C61.1638 8.93867 60.7265 8.672 60.4385 8.32C60.1505 7.968 60.0065 7.56267 60.0065 7.104C60.0065 6.752 60.0972 6.416 60.2785 6.096C60.4598 5.76533 60.7372 5.49333 61.1105 5.28C61.4838 5.06667 61.9532 4.96 62.5185 4.96C63.0305 4.96 63.4732 5.01867 63.8465 5.136C64.2305 5.24267 64.5878 5.42933 64.9185 5.696L64.2305 6.768C64.0385 6.58667 63.8092 6.448 63.5425 6.352C63.2865 6.24533 63.0518 6.18667 62.8385 6.176C62.6465 6.16533 62.4758 6.192 62.3265 6.256C62.1772 6.30933 62.0545 6.38933 61.9585 6.496C61.8732 6.60267 61.8305 6.72533 61.8305 6.864C61.8198 7.07733 61.8892 7.248 62.0385 7.376C62.1985 7.504 62.4012 7.60533 62.6465 7.68C62.8918 7.75467 63.1372 7.83467 63.3825 7.92C63.7132 8.016 64.0065 8.14933 64.2625 8.32C64.5185 8.49067 64.7158 8.69867 64.8545 8.944C65.0038 9.17867 65.0785 9.472 65.0785 9.824C65.0785 10.2293 64.9772 10.6133 64.7745 10.976C64.5718 11.328 64.2678 11.6107 63.8625 11.824C63.4572 12.0373 62.9452 12.144 62.3265 12.144ZM67.6201 15.248L72.1161 5.232H73.7481L69.3801 15.248H67.6201ZM69.3641 12.048L66.0681 5.232H68.0841L70.7401 11.136L69.3641 12.048ZM40.768 16.352H48.56V18.144H45.552V28H43.696V18.144H40.768V16.352ZM48.3283 24.544C48.3283 23.8613 48.4883 23.248 48.8083 22.704C49.1283 22.1493 49.5763 21.7173 50.1523 21.408C50.7389 21.088 51.4003 20.928 52.1363 20.928C52.8936 20.928 53.5496 21.088 54.1043 21.408C54.6696 21.7173 55.1069 22.1493 55.4163 22.704C55.7256 23.248 55.8802 23.8613 55.8802 24.544C55.8802 25.2267 55.7256 25.8453 55.4163 26.4C55.1069 26.944 54.6696 27.376 54.1043 27.696C53.5496 28.016 52.8883 28.176 52.1203 28.176C51.3949 28.176 50.7443 28.032 50.1683 27.744C49.5923 27.4453 49.1389 27.024 48.8083 26.48C48.4883 25.936 48.3283 25.2907 48.3283 24.544ZM50.1363 24.56C50.1363 24.9547 50.2216 25.3173 50.3923 25.648C50.5629 25.968 50.7976 26.224 51.0963 26.416C51.3949 26.608 51.7256 26.704 52.0883 26.704C52.4829 26.704 52.8243 26.608 53.1123 26.416C53.4109 26.224 53.6403 25.968 53.8003 25.648C53.9709 25.3173 54.0563 24.9547 54.0563 24.56C54.0563 24.1547 53.9709 23.792 53.8003 23.472C53.6403 23.1413 53.4109 22.88 53.1123 22.688C52.8243 22.496 52.4829 22.4 52.0883 22.4C51.7149 22.4 51.3789 22.5013 51.0803 22.704C50.7923 22.896 50.5629 23.152 50.3923 23.472C50.2216 23.792 50.1363 24.1547 50.1363 24.56ZM60.5312 28.176C59.8913 28.176 59.3206 28.0267 58.8193 27.728C58.3179 27.4293 57.9233 27.0027 57.6353 26.448C57.3473 25.8933 57.2033 25.248 57.2033 24.512C57.2033 23.7547 57.3579 23.1093 57.6673 22.576C57.9766 22.0427 58.3979 21.6373 58.9313 21.36C59.4753 21.072 60.0833 20.928 60.7552 20.928C61.2459 20.928 61.7153 21.024 62.1633 21.216C62.6113 21.3973 62.9686 21.664 63.2353 22.016L63.2033 22.624V15.52H64.9792V28H63.1873V26.48L63.3633 26.912C63.0219 27.2747 62.6113 27.5787 62.1313 27.824C61.6619 28.0587 61.1286 28.176 60.5312 28.176ZM61.1073 26.656C61.4593 26.656 61.7686 26.5973 62.0353 26.48C62.3126 26.3627 62.5473 26.1973 62.7393 25.984C62.9419 25.76 63.0913 25.4987 63.1873 25.2V23.76C63.1019 23.4827 62.9579 23.2373 62.7553 23.024C62.5633 22.8107 62.3233 22.6453 62.0353 22.528C61.7473 22.4107 61.4379 22.352 61.1073 22.352C60.7233 22.352 60.3713 22.4427 60.0513 22.624C59.7419 22.8053 59.4913 23.056 59.2993 23.376C59.1073 23.696 59.0113 24.064 59.0113 24.48C59.0113 24.8853 59.1073 25.2533 59.2993 25.584C59.4913 25.9147 59.7473 26.176 60.0673 26.368C60.3873 26.56 60.7339 26.656 61.1073 26.656ZM70.2188 28.176C69.5788 28.176 69.0081 28.0267 68.5068 27.728C68.0054 27.4293 67.6108 27.0027 67.3228 26.448C67.0348 25.8933 66.8908 25.248 66.8908 24.512C66.8908 23.7547 67.0454 23.1093 67.3548 22.576C67.6641 22.0427 68.0854 21.6373 68.6188 21.36C69.1628 21.072 69.7708 20.928 70.4427 20.928C70.9334 20.928 71.4028 21.024 71.8508 21.216C72.2988 21.3973 72.6561 21.664 72.9228 22.016L72.8908 22.624V15.52H74.6667V28H72.8748V26.48L73.0508 26.912C72.7094 27.2747 72.2988 27.5787 71.8188 27.824C71.3494 28.0587 70.8161 28.176 70.2188 28.176ZM70.7948 26.656C71.1468 26.656 71.4561 26.5973 71.7228 26.48C72.0001 26.3627 72.2348 26.1973 72.4268 25.984C72.6294 25.76 72.7788 25.4987 72.8748 25.2V23.76C72.7894 23.4827 72.6454 23.2373 72.4428 23.024C72.2508 22.8107 72.0108 22.6453 71.7228 22.528C71.4348 22.4107 71.1254 22.352 70.7948 22.352C70.4108 22.352 70.0588 22.4427 69.7388 22.624C69.4294 22.8053 69.1788 23.056 68.9868 23.376C68.7948 23.696 68.6988 24.064 68.6988 24.48C68.6988 24.8853 68.7948 25.2533 68.9868 25.584C69.1788 25.9147 69.4348 26.176 69.7548 26.368C70.0748 26.56 70.4214 26.656 70.7948 26.656ZM77.1383 15.52H78.9303V28H77.1383V15.52ZM84.6203 28.176C83.8203 28.176 83.1376 28.0213 82.5723 27.712C82.0069 27.4027 81.5749 26.976 81.2763 26.432C80.9776 25.8773 80.8283 25.2533 80.8283 24.56C80.8283 23.8773 80.9989 23.264 81.3403 22.72C81.6816 22.176 82.1403 21.744 82.7163 21.424C83.3029 21.0933 83.9483 20.928 84.6523 20.928C85.5803 20.928 86.3429 21.2 86.9403 21.744C87.5483 22.2773 87.9536 23.0347 88.1562 24.016L82.7003 25.856L82.2843 24.848L86.5403 23.328L86.1723 23.536C86.0549 23.216 85.8629 22.9387 85.5963 22.704C85.3403 22.4693 84.9776 22.352 84.5083 22.352C84.1349 22.352 83.8043 22.4427 83.5163 22.624C83.2283 22.7947 82.9989 23.04 82.8283 23.36C82.6683 23.6693 82.5883 24.0373 82.5883 24.464C82.5883 24.9013 82.6789 25.2853 82.8603 25.616C83.0416 25.9467 83.2869 26.2027 83.5963 26.384C83.9056 26.5547 84.2576 26.64 84.6523 26.64C84.9296 26.64 85.1963 26.592 85.4523 26.496C85.7083 26.4 85.9483 26.272 86.1723 26.112L86.9883 27.44C86.6363 27.664 86.2469 27.8453 85.8203 27.984C85.4043 28.112 85.0043 28.176 84.6203 28.176ZM91.5355 21.232L91.6955 23.152L91.6315 22.88C91.8235 22.4747 92.0848 22.128 92.4155 21.84C92.7568 21.5413 93.1035 21.3173 93.4555 21.168C93.8075 21.008 94.0955 20.928 94.3195 20.928L94.2395 22.72C93.7275 22.6773 93.2795 22.7733 92.8955 23.008C92.5222 23.232 92.2288 23.5307 92.0155 23.904C91.8128 24.2773 91.7115 24.672 91.7115 25.088V28H89.9195V21.232H91.5355ZM41.6 44V31.936H41.616L47.888 40.816L47.088 40.64L53.328 31.936H53.36V44H51.504V36.144L51.632 37.104L47.424 43.056H47.392L43.088 37.104L43.408 36.224V44H41.6ZM58.3611 44.288C57.7425 44.288 57.2305 44.1013 56.8251 43.728C56.4198 43.344 56.2065 42.8533 56.1851 42.256V37.232H57.9771V41.616C57.9985 41.9467 58.0945 42.2187 58.2651 42.432C58.4358 42.6453 58.7078 42.752 59.0811 42.752C59.4331 42.752 59.7478 42.6453 60.0251 42.432C60.3025 42.208 60.5158 41.904 60.6651 41.52C60.8251 41.136 60.9051 40.704 60.9051 40.224V37.232H62.6971V44H61.0811L60.9371 42.512L60.9851 42.752C60.8465 43.04 60.6491 43.3067 60.3931 43.552C60.1371 43.7867 59.8331 43.968 59.4811 44.096C59.1398 44.224 58.7665 44.288 58.3611 44.288ZM66.7855 37.232L66.9455 38.608L66.8815 38.496C67.1375 38.0053 67.4842 37.6213 67.9215 37.344C68.3695 37.0667 68.8868 36.928 69.4735 36.928C69.8468 36.928 70.1775 36.9867 70.4655 37.104C70.7535 37.2213 70.9935 37.3867 71.1855 37.6C71.3882 37.8133 71.5215 38.08 71.5855 38.4L71.4895 38.432C71.7668 37.9733 72.1242 37.6107 72.5615 37.344C72.9988 37.0667 73.4628 36.928 73.9535 36.928C74.6148 36.928 75.1428 37.12 75.5375 37.504C75.9322 37.8773 76.1348 38.3627 76.1455 38.96V44H74.3695V39.664C74.3588 39.3333 74.2895 39.0613 74.1615 38.848C74.0335 38.624 73.7935 38.5013 73.4415 38.48C73.0575 38.48 72.7268 38.6027 72.4495 38.848C72.1722 39.0827 71.9535 39.392 71.7935 39.776C71.6442 40.1493 71.5695 40.5493 71.5695 40.976V44H69.7615V39.664C69.7508 39.3333 69.6762 39.0613 69.5375 38.848C69.3988 38.624 69.1535 38.5013 68.8015 38.48C68.4282 38.48 68.1028 38.6027 67.8255 38.848C67.5482 39.0827 67.3348 39.392 67.1855 39.776C67.0362 40.1493 66.9615 40.544 66.9615 40.96V44H65.1695V37.232H66.7855Z" fill="#252A34"/>
<path d="M15.9977 24.2861C16.3858 24.2861 16.7652 24.171 17.0879 23.9554C17.4106 23.7398 17.6621 23.4333 17.8106 23.0747C17.9591 22.7162 17.998 22.3216 17.9223 21.941C17.8466 21.5603 17.6597 21.2107 17.3852 20.9363C17.1108 20.6618 16.7612 20.4749 16.3805 20.3992C15.9999 20.3235 15.6053 20.3624 15.2468 20.5109C14.8882 20.6594 14.5817 20.9109 14.3661 21.2336C14.1505 21.5563 14.0354 21.9357 14.0354 22.3238C14.0354 22.8442 14.2421 23.3434 14.6101 23.7114C14.9781 24.0794 15.4773 24.2861 15.9977 24.2861ZM15.9977 21.3882C16.1811 21.3882 16.3604 21.4426 16.5129 21.5445C16.6654 21.6464 16.7842 21.7912 16.8544 21.9606C16.9246 22.1301 16.943 22.3166 16.9072 22.4964C16.8714 22.6763 16.7831 22.8416 16.6534 22.9712C16.5237 23.1009 16.3585 23.1893 16.1786 23.225C15.9987 23.2608 15.8123 23.2424 15.6428 23.1723C15.4734 23.1021 15.3285 22.9832 15.2266 22.8307C15.1247 22.6782 15.0704 22.4989 15.0704 22.3155C15.0736 22.0714 15.1726 21.8382 15.3461 21.6663C15.5195 21.4944 15.7535 21.3975 15.9977 21.3965V21.3882Z" fill="black"/>
<path d="M27.2209 24.2861C27.609 24.2861 27.9884 24.171 28.3111 23.9554C28.6338 23.7398 28.8853 23.4333 29.0338 23.0747C29.1823 22.7162 29.2212 22.3216 29.1455 21.941C29.0698 21.5603 28.8829 21.2107 28.6084 20.9363C28.334 20.6618 27.9844 20.4749 27.6037 20.3992C27.2231 20.3235 26.8285 20.3624 26.47 20.5109C26.1114 20.6594 25.8049 20.9109 25.5893 21.2336C25.3737 21.5563 25.2586 21.9357 25.2586 22.3238C25.2586 22.8442 25.4653 23.3434 25.8333 23.7114C26.2013 24.0794 26.7005 24.2861 27.2209 24.2861ZM27.2209 21.3882C27.4043 21.3882 27.5836 21.4426 27.7361 21.5445C27.8886 21.6464 28.0074 21.7912 28.0776 21.9606C28.1478 22.1301 28.1662 22.3166 28.1304 22.4964C28.0946 22.6763 28.0063 22.8416 27.8766 22.9712C27.7469 23.1009 27.5817 23.1893 27.4018 23.225C27.2219 23.2608 27.0355 23.2424 26.866 23.1723C26.6966 23.1021 26.5517 22.9832 26.4499 22.8307C26.348 22.6782 26.2936 22.4989 26.2936 22.3155C26.2968 22.0714 26.3958 21.8382 26.5693 21.6663C26.7427 21.4944 26.9767 21.3975 27.2209 21.3965V21.3882Z" fill="black"/>
<path d="M0.154489 42.1461C0.300293 42.4645 0.533092 42.7353 0.826065 42.9272C1.11904 43.1191 1.46026 43.2243 1.81043 43.2307C2.05765 43.2294 2.30228 43.1802 2.53077 43.0858C3.85138 42.5394 11.4977 38.946 13.1867 38.1594C14.6978 39.4262 17.5377 39.5463 19.6325 38.3788C20.6909 37.8222 21.4922 36.877 21.868 35.7417C24.3516 35.6932 26.7641 34.904 28.7961 33.4753C30.8282 32.0466 32.3872 30.0435 33.2733 27.7228C33.4621 27.7373 33.6517 27.7373 33.8405 27.7228C35.4674 27.6028 36.7094 26.3608 36.61 24.9533C36.5148 23.7113 35.4467 22.7716 34.0765 22.635C33.9477 20.2609 33.1464 17.9724 31.7662 16.0365C30.3859 14.1006 28.4836 12.5972 26.2811 11.7016C26.9032 10.9769 27.3129 10.0944 27.4651 9.15145C27.4766 9.06244 27.4652 8.97196 27.4319 8.88862C27.3985 8.80529 27.3444 8.73187 27.2747 8.67537C27.2049 8.61891 27.1214 8.58189 27.0327 8.56808C26.944 8.55426 26.8533 8.56414 26.7696 8.59671C25.8401 8.96104 24.8872 9.26255 23.9173 9.4992C24.4927 7.9302 23.8055 5.67398 23.702 5.35935C23.6737 5.26734 23.6197 5.18534 23.5463 5.12299C23.473 5.06065 23.3834 5.02057 23.288 5.00746C23.1943 4.99138 23.098 5.00141 23.0096 5.03647C22.9213 5.07152 22.8443 5.13024 22.7871 5.20617C19.1357 10.1823 16.9747 11.6643 16.954 11.6643L16.9209 11.6975C14.7206 12.5965 12.8212 14.1024 11.4439 16.0396C10.0667 17.9768 9.26842 20.2656 9.14211 22.6391C7.77182 22.7757 6.70374 23.7237 6.60852 24.9616C6.50917 26.3691 7.75112 27.6069 9.37808 27.727C9.56539 27.7435 9.7538 27.7435 9.9411 27.727C10.6343 29.5356 11.7383 31.1583 13.1661 32.4671C12.7268 33.459 12.4139 34.5021 12.2346 35.572C10.6242 36.1392 3.01099 38.8301 1.24741 39.7119C0.00545466 40.3121 -0.197398 41.3678 0.154489 42.1461ZM21.6196 32.1276H21.3837C20.6468 31.5853 18.8997 30.4013 17.19 30.0577C16.8234 29.4988 16.6028 28.8568 16.5483 28.1906C19.9141 27.7187 23.3293 27.7187 26.6951 28.1906C26.4384 30.8898 23.938 32.1276 21.6196 32.1276ZM20.2949 32.6203L13.3813 35.158C13.7042 33.7215 14.4328 31.5605 15.6624 31.0968C15.8728 31.0186 16.0961 30.9807 16.3206 30.985C17.5419 30.985 19.1978 31.8958 20.2825 32.6203H20.2949ZM22.9651 6.69652C23.1679 7.79358 23.2425 9.25909 22.4973 9.74759C22.4071 9.80637 22.3376 9.89179 22.2982 9.99196C22.2589 10.0921 22.2518 10.2021 22.2779 10.3065C22.3056 10.4112 22.3651 10.5048 22.4481 10.5745C22.5311 10.6441 22.6336 10.6864 22.7415 10.6956C22.845 10.6956 23.7558 10.7412 26.1735 9.90905C25.9241 10.5884 25.4735 11.1755 24.8817 11.5919C24.2899 12.0084 23.5852 12.2344 22.8616 12.2398C22.7532 12.2447 22.6491 12.2835 22.5639 12.3508C22.4788 12.4181 22.417 12.5105 22.3873 12.6149C22.3575 12.7192 22.3613 12.8303 22.3982 12.9324C22.435 13.0344 22.503 13.1223 22.5925 13.1837C23.2506 13.6053 23.9431 13.9709 24.6624 14.2766C22.5925 14.5001 19.3137 14.4505 17.8855 12.2356C18.6472 11.6643 20.3777 10.0664 22.9651 6.69652ZM10.7732 26.9818C10.7387 26.8795 10.673 26.7906 10.5854 26.7275C10.4978 26.6644 10.3927 26.6303 10.2847 26.6299C10.2448 26.6256 10.2046 26.6256 10.1647 26.6299C9.93319 26.6863 9.69429 26.7058 9.45674 26.6879C8.3928 26.6092 7.58139 25.8599 7.63934 25.0319C7.6973 24.204 8.58737 23.6037 9.61406 23.6699C9.75438 23.6737 9.89076 23.6233 9.99492 23.5292C10.0454 23.481 10.0857 23.4232 10.1134 23.3592C10.1411 23.2952 10.1557 23.2263 10.1564 23.1566C10.19 20.9539 10.856 18.8072 12.0752 16.9723C13.2943 15.1374 15.0151 13.6915 17.0327 12.8069C18.3781 14.9266 20.9531 15.4399 23.1183 15.4399C24.3506 15.4277 25.5774 15.2721 26.7737 14.9762C26.8831 14.9501 26.9809 14.8887 27.052 14.8016C27.1231 14.7146 27.1636 14.6065 27.1674 14.4941C27.1712 14.3818 27.1379 14.2713 27.0728 14.1796C27.0077 14.0879 26.9142 14.0202 26.8069 13.9868C25.9831 13.7113 25.1783 13.3821 24.3975 13.0015C24.7587 12.8761 25.1023 12.705 25.42 12.4923C27.6274 13.2772 29.542 14.7182 30.9072 16.622C32.2724 18.5259 33.0229 20.8017 33.058 23.1442C33.0587 23.2139 33.0733 23.2828 33.101 23.3468C33.1288 23.4108 33.169 23.4686 33.2195 23.5167C33.3232 23.6116 33.4599 23.6621 33.6004 23.6575C34.6395 23.6078 35.5171 24.2247 35.5792 25.0361C35.6413 25.8475 34.8258 26.6175 33.7618 26.692C33.5243 26.71 33.2854 26.6904 33.0539 26.6341C32.9285 26.6066 32.7974 26.626 32.6853 26.6885C32.5732 26.751 32.4879 26.8524 32.4454 26.9735C31.6985 29.1531 30.3109 31.0563 28.4641 32.434C26.6174 33.8116 24.3977 34.5995 22.0957 34.6944C22.1328 34.1749 22.1008 33.6529 22.0005 33.1419C24.8984 32.9929 27.7466 31.1465 27.7466 27.7353C27.7462 27.6116 27.7019 27.492 27.6215 27.398C27.5411 27.304 27.4299 27.2416 27.3078 27.2219C23.5361 26.6465 19.699 26.6465 15.9273 27.2219C15.8052 27.2416 15.694 27.304 15.6136 27.398C15.5333 27.492 15.4889 27.6116 15.4885 27.7353C15.4813 28.5086 15.6467 29.2737 15.9729 29.9749C15.7397 29.9946 15.51 30.0447 15.2898 30.124C14.6192 30.4139 14.0572 30.9079 13.6835 31.5356C12.3631 30.2724 11.3651 28.7107 10.7732 26.9818ZM1.70279 40.6433C3.58229 39.716 12.7769 36.5035 12.8804 36.4579L20.9987 33.4565C21.1782 34.2383 21.0927 35.0576 20.7554 35.7854C20.4181 36.5131 19.8483 37.108 19.1357 37.4763C17.3183 38.4906 14.764 38.354 13.6711 37.1907C13.6556 37.177 13.639 37.1645 13.6214 37.1534C13.5896 37.1264 13.5531 37.1054 13.5138 37.0913C13.4956 37.0806 13.4762 37.0722 13.4558 37.0665C13.4146 37.0622 13.3729 37.0622 13.3316 37.0665H13.2737C13.2105 37.0693 13.1486 37.0848 13.0915 37.112L12.9798 37.1658L9.5975 38.7514C6.71616 40.0513 3.01099 41.7735 2.16232 42.1295C1.96739 42.2143 1.74682 42.2183 1.54895 42.1407C1.35107 42.0631 1.19202 41.9102 1.10666 41.7155C0.920362 41.314 1.13977 40.9041 1.70279 40.6433Z" fill="black"/>
</svg>
